<svg
xmlns="http://www.w3.org/2000/svg" xmlns:xlink="http://www.w3.org/1999/xlink"
viewBox="-10.000004 -60.0 70.0 70.0"
width="70.0" height="70.0" >
<path fill="none" stroke="black" d="
M0,0
l50.0,0.0
M50.0,0.0
l-2.1855694e-6,-50.0
M50.0,0.0
l-2.1855694e-6,-50.0
M49.999996,-50.0
M50.0,0.0
l-2.1855694e-6,-50.0
M49.999996,-50.0
l-50.0,4.371139e-6
M49.999996,-50.0
M50.0,0.0
l-2.1855694e-6,-50.0
M49.999996,-50.0
l-50.0,4.371139e-6
M49.999996,-50.0
l-50.0,4.371139e-6
M-3.8146973e-6,-49.999996
M49.999996,-50.0
M50.0,0.0
l-2.1855694e-6,-50.0
M49.999996,-50.0
l-50.0,4.371139e-6
M49.999996,-50.0
l-50.0,4.371139e-6
M-3.8146973e-6,-49.999996
M49.999996,-50.0
l-50.0,4.371139e-6
M-3.8146973e-6,-49.999996
l5.9624404e-7,50.0
M-3.8146973e-6,-49.999996
M49.999996,-50.0
M50.0,0.0
" />
</svg>
