<svg
xmlns="http://www.w3.org/2000/svg" xmlns:xlink="http://www.w3.org/1999/xlink"
viewBox="-10.000009 -10.0 3170.0024 3170.001"
width="3170.0024" height="3170.001" >
<path fill="none" stroke="black" d="
M0,0
l50.0,0.0
l-2.1855694e-6,50.0
l-50.0,-4.371139e-6
l-2.1855694e-6,50.0
l-2.1855694e-6,50.0
l50.0,0.0
l-2.1855694e-6,-50.0
l50.0,0.0
l-2.1855694e-6,50.0
l50.0,0.0
l-2.1855694e-6,-50.0
l-2.1855694e-6,-50.0
l-50.0,4.371139e-6
l-2.1855694e-6,-50.0
l50.0,0.0
l50.0,0.0
l-2.1855694e-6,50.0
l50.0,0.0
l-2.1855694e-6,-50.0
l50.0,0.0
l50.0,0.0
l-2.1855694e-6,50.0
l-50.0,-4.371139e-6
l-2.1855694e-6,50.0
l50.0,0.0
l-2.1855694e-6,50.0
l-50.0,-4.371139e-6
l-50.0,-4.371139e-6
l5.9624404e-7,-50.0
l-50.0,7.54979e-6
l9.7353595e-6,50.0
l9.7353595e-6,50.0
l9.7353595e-6,50.0
l50.0,-1.1920929e-5
l-1.4106498e-5,-50.0
l50.0,-1.1920929e-5
l50.0,-1.1920929e-5
l9.7353595e-6,50.0
l-50.0,7.54979e-6
l9.7353595e-6,50.0
l50.0,-1.1920929e-5
l9.7353595e-6,50.0
l-50.0,7.54979e-6
l-50.0,7.54979e-6
l5.9624404e-7,-50.0
l-50.0,7.54979e-6
l9.7353595e-6,50.0
l-50.0,7.54979e-6
l-50.0,7.54979e-6
l5.9624404e-7,-50.0
l50.0,8.742278e-6
l5.9624404e-7,-50.0
l5.9624404e-7,-50.0
l-50.0,7.54979e-6
l9.7353595e-6,50.0
l-50.0,7.54979e-6
l5.9624404e-7,-50.0
l-50.0,7.54979e-6
l9.7353595e-6,50.0
l9.7353595e-6,50.0
l50.0,-1.1920929e-5
l9.7353595e-6,50.0
l-50.0,7.54979e-6
l9.7353595e-6,50.0
l9.7353595e-6,50.0
l50.0,-1.1920929e-5
l-1.4106498e-5,-50.0
l50.0,-1.1920929e-5
l50.0,-1.1920929e-5
l9.7353595e-6,50.0
l-50.0,7.54979e-6
l9.7353595e-6,50.0
l50.0,-1.1920929e-5
l9.7353595e-6,50.0
l-50.0,7.54979e-6
l-50.0,7.54979e-6
l5.9624404e-7,-50.0
l-50.0,7.54979e-6
l9.7353595e-6,50.0
l9.7353595e-6,50.0
l50.0,-1.1920929e-5
l9.7353595e-6,50.0
l-50.0,7.54979e-6
l9.7353595e-6,50.0
l9.7353595e-6,50.0
l50.0,-1.1920929e-5
l-1.4106498e-5,-50.0
l50.0,-1.1920929e-5
l9.7353595e-6,50.0
l50.0,-1.1920929e-5
l-1.4106498e-5,-50.0
l-1.4106498e-5,-50.0
l-50.0,1.6292068e-5
l-1.4106498e-5,-50.0
l50.0,-1.1920929e-5
l50.0,-1.1920929e-5
l50.0,-1.1920929e-5
l9.7353595e-6,50.0
l-50.0,7.54979e-6
l9.7353595e-6,50.0
l9.7353595e-6,50.0
l50.0,-1.1920929e-5
l-1.4106498e-5,-50.0
l50.0,-1.1920929e-5
l9.7353595e-6,50.0
l50.0,-1.1920929e-5
l-1.4106498e-5,-50.0
l-1.4106498e-5,-50.0
l-50.0,1.6292068e-5
l-1.4106498e-5,-50.0
l50.0,-1.1920929e-5
l-1.4106498e-5,-50.0
l-1.4106498e-5,-50.0
l-50.0,1.6292068e-5
l2.4438103e-5,50.0
l-50.0,1.6292068e-5
l-50.0,1.6292068e-5
l-1.4106498e-5,-50.0
l50.0,-1.1920929e-5
l-1.4106498e-5,-50.0
l-50.0,1.6292068e-5
l-1.4106498e-5,-50.0
l50.0,-1.1920929e-5
l50.0,-1.1920929e-5
l9.7353595e-6,50.0
l50.0,-1.1920929e-5
l-1.4106498e-5,-50.0
l50.0,-1.1920929e-5
l9.7353595e-6,50.0
l50.0,-1.1920929e-5
l-1.4106498e-5,-50.0
l50.0,-1.1920929e-5
l50.0,-1.1920929e-5
l9.7353595e-6,50.0
l-50.0,7.54979e-6
l9.7353595e-6,50.0
l50.0,-1.1920929e-5
l9.7353595e-6,50.0
l-50.0,7.54979e-6
l-50.0,7.54979e-6
l5.9624404e-7,-50.0
l-50.0,7.54979e-6
l9.7353595e-6,50.0
l9.7353595e-6,50.0
l50.0,-1.1920929e-5
l9.7353595e-6,50.0
l-50.0,7.54979e-6
l9.7353595e-6,50.0
l9.7353595e-6,50.0
l50.0,-1.1920929e-5
l-1.4106498e-5,-50.0
l50.0,-1.1920929e-5
l9.7353595e-6,50.0
l50.0,-1.1920929e-5
l-1.4106498e-5,-50.0
l-1.4106498e-5,-50.0
l-50.0,1.6292068e-5
l-1.4106498e-5,-50.0
l50.0,-1.1920929e-5
l50.0,-1.1920929e-5
l50.0,-1.1920929e-5
l9.7353595e-6,50.0
l-50.0,7.54979e-6
l9.7353595e-6,50.0
l9.7353595e-6,50.0
l50.0,-1.1920929e-5
l-1.4106498e-5,-50.0
l50.0,-1.1920929e-5
l9.7353595e-6,50.0
l50.0,-1.1920929e-5
l-1.4106498e-5,-50.0
l-1.4106498e-5,-50.0
l-50.0,1.6292068e-5
l-1.4106498e-5,-50.0
l50.0,-1.1920929e-5
l-1.4106498e-5,-50.0
l-1.4106498e-5,-50.0
l-50.0,1.6292068e-5
l2.4438103e-5,50.0
l-50.0,1.6292068e-5
l-50.0,1.6292068e-5
l-1.4106498e-5,-50.0
l50.0,-1.1920929e-5
l-1.4106498e-5,-50.0
l-50.0,1.6292068e-5
l-1.4106498e-5,-50.0
l50.0,-1.1920929e-5
l50.0,-1.1920929e-5
l9.7353595e-6,50.0
l50.0,-1.1920929e-5
l-1.4106498e-5,-50.0
l-1.4106498e-5,-50.0
l-50.0,1.6292068e-5
l-1.4106498e-5,-50.0
l50.0,-1.1920929e-5
l-1.4106498e-5,-50.0
l-1.4106498e-5,-50.0
l-50.0,1.6292068e-5
l2.4438103e-5,50.0
l-50.0,1.6292068e-5
l-1.4106498e-5,-50.0
l-50.0,1.6292068e-5
l2.4438103e-5,50.0
l2.4438103e-5,50.0
l50.0,-3.2584136e-5
l2.4438103e-5,50.0
l-50.0,1.6292068e-5
l-50.0,1.6292068e-5
l-1.4106498e-5,-50.0
l-50.0,1.6292068e-5
l2.4438103e-5,50.0
l-50.0,1.6292068e-5
l-50.0,1.6292068e-5
l-1.4106498e-5,-50.0
l50.0,-1.1920929e-5
l-1.4106498e-5,-50.0
l-50.0,1.6292068e-5
l-1.4106498e-5,-50.0
l50.0,-1.1920929e-5
l50.0,-1.1920929e-5
l9.7353595e-6,50.0
l50.0,-1.1920929e-5
l-1.4106498e-5,-50.0
l-1.4106498e-5,-50.0
l-1.4106498e-5,-50.0
l-50.0,1.6292068e-5
l2.4438103e-5,50.0
l-50.0,1.6292068e-5
l-50.0,1.6292068e-5
l-1.4106498e-5,-50.0
l50.0,-1.1920929e-5
l-1.4106498e-5,-50.0
l-50.0,1.6292068e-5
l-1.4106498e-5,-50.0
l50.0,-1.1920929e-5
l50.0,-1.1920929e-5
l9.7353595e-6,50.0
l50.0,-1.1920929e-5
l-1.4106498e-5,-50.0
l50.0,-1.1920929e-5
l50.0,-1.1920929e-5
l9.7353595e-6,50.0
l-50.0,7.54979e-6
l9.7353595e-6,50.0
l9.7353595e-6,50.0
l50.0,-1.1920929e-5
l-1.4106498e-5,-50.0
l50.0,-1.1920929e-5
l9.7353595e-6,50.0
l50.0,-1.1920929e-5
l-1.4106498e-5,-50.0
l-1.4106498e-5,-50.0
l-50.0,1.6292068e-5
l-1.4106498e-5,-50.0
l50.0,-1.1920929e-5
l50.0,-1.1920929e-5
l9.7353595e-6,50.0
l50.0,-1.1920929e-5
l-1.4106498e-5,-50.0
l50.0,-1.1920929e-5
l50.0,-1.1920929e-5
l9.7353595e-6,50.0
l-50.0,7.54979e-6
l9.7353595e-6,50.0
l50.0,-1.1920929e-5
l9.7353595e-6,50.0
l-50.0,7.54979e-6
l-50.0,7.54979e-6
l5.9624404e-7,-50.0
l-50.0,7.54979e-6
l9.7353595e-6,50.0
l9.7353595e-6,50.0
l50.0,-1.1920929e-5
l9.7353595e-6,50.0
l-50.0,7.54979e-6
l9.7353595e-6,50.0
l9.7353595e-6,50.0
l50.0,-1.1920929e-5
l-1.4106498e-5,-50.0
l50.0,-1.1920929e-5
l9.7353595e-6,50.0
l50.0,-1.1920929e-5
l-1.4106498e-5,-50.0
l-1.4106498e-5,-50.0
l-50.0,1.6292068e-5
l-1.4106498e-5,-50.0
l50.0,-1.1920929e-5
l50.0,-1.1920929e-5
l50.0,-1.1920929e-5
l9.7353595e-6,50.0
l-50.0,7.54979e-6
l9.7353595e-6,50.0
l9.7353595e-6,50.0
l50.0,-1.1920929e-5
l-1.4106498e-5,-50.0
l50.0,-1.1920929e-5
l9.7353595e-6,50.0
l50.0,-1.1920929e-5
l-1.4106498e-5,-50.0
l-1.4106498e-5,-50.0
l-50.0,1.6292068e-5
l-1.4106498e-5,-50.0
l50.0,-1.1920929e-5
l-1.4106498e-5,-50.0
l-1.4106498e-5,-50.0
l-50.0,1.6292068e-5
l2.4438103e-5,50.0
l-50.0,1.6292068e-5
l-50.0,1.6292068e-5
l-1.4106498e-5,-50.0
l50.0,-1.1920929e-5
l-1.4106498e-5,-50.0
l-50.0,1.6292068e-5
l-1.4106498e-5,-50.0
l50.0,-1.1920929e-5
l50.0,-1.1920929e-5
l9.7353595e-6,50.0
l50.0,-1.1920929e-5
l-1.4106498e-5,-50.0
l50.0,-1.1920929e-5
l50.0,-1.1920929e-5
l9.7353595e-6,50.0
l-50.0,7.54979e-6
l9.7353595e-6,50.0
l9.7353595e-6,50.0
l50.0,-1.1920929e-5
l-1.4106498e-5,-50.0
l50.0,-1.1920929e-5
l9.7353595e-6,50.0
l50.0,-1.1920929e-5
l-1.4106498e-5,-50.0
l-1.4106498e-5,-50.0
l-50.0,1.6292068e-5
l-1.4106498e-5,-50.0
l50.0,-1.1920929e-5
l50.0,-1.1920929e-5
l9.7353595e-6,50.0
l50.0,-1.1920929e-5
l-1.4106498e-5,-50.0
l50.0,-1.1920929e-5
l50.0,-1.1920929e-5
l9.7353595e-6,50.0
l-50.0,7.54979e-6
l9.7353595e-6,50.0
l50.0,-1.1920929e-5
l9.7353595e-6,50.0
l-50.0,7.54979e-6
l-50.0,7.54979e-6
l5.9624404e-7,-50.0
l-50.0,7.54979e-6
l9.7353595e-6,50.0
l9.7353595e-6,50.0
l9.7353595e-6,50.0
l50.0,-1.1920929e-5
l-1.4106498e-5,-50.0
l50.0,-1.1920929e-5
l50.0,-1.1920929e-5
l9.7353595e-6,50.0
l-50.0,7.54979e-6
l9.7353595e-6,50.0
l50.0,-1.1920929e-5
l9.7353595e-6,50.0
l-50.0,7.54979e-6
l-50.0,7.54979e-6
l5.9624404e-7,-50.0
l-50.0,7.54979e-6
l9.7353595e-6,50.0
l-50.0,7.54979e-6
l-50.0,7.54979e-6
l5.9624404e-7,-50.0
l50.0,8.742278e-6
l5.9624404e-7,-50.0
l5.9624404e-7,-50.0
l-50.0,7.54979e-6
l9.7353595e-6,50.0
l-50.0,7.54979e-6
l5.9624404e-7,-50.0
l-50.0,7.54979e-6
l9.7353595e-6,50.0
l9.7353595e-6,50.0
l50.0,-1.1920929e-5
l9.7353595e-6,50.0
l-50.0,7.54979e-6
l9.7353595e-6,50.0
l50.0,-1.1920929e-5
l9.7353595e-6,50.0
l-50.0,7.54979e-6
l9.7353595e-6,50.0
l9.7353595e-6,50.0
l50.0,-1.1920929e-5
l-1.4106498e-5,-50.0
l50.0,-1.1920929e-5
l9.7353595e-6,50.0
l50.0,-1.1920929e-5
l-1.4106498e-5,-50.0
l-1.4106498e-5,-50.0
l-50.0,1.6292068e-5
l-1.4106498e-5,-50.0
l50.0,-1.1920929e-5
l50.0,-1.1920929e-5
l9.7353595e-6,50.0
l50.0,-1.1920929e-5
l-1.4106498e-5,-50.0
l50.0,-1.1920929e-5
l50.0,-1.1920929e-5
l9.7353595e-6,50.0
l-50.0,7.54979e-6
l9.7353595e-6,50.0
l50.0,-1.1920929e-5
l9.7353595e-6,50.0
l-50.0,7.54979e-6
l-50.0,7.54979e-6
l5.9624404e-7,-50.0
l-50.0,7.54979e-6
l9.7353595e-6,50.0
l9.7353595e-6,50.0
l9.7353595e-6,50.0
l50.0,-1.1920929e-5
l-1.4106498e-5,-50.0
l50.0,-1.1920929e-5
l50.0,-1.1920929e-5
l9.7353595e-6,50.0
l-50.0,7.54979e-6
l9.7353595e-6,50.0
l50.0,-1.1920929e-5
l9.7353595e-6,50.0
l-50.0,7.54979e-6
l-50.0,7.54979e-6
l5.9624404e-7,-50.0
l-50.0,7.54979e-6
l9.7353595e-6,50.0
l-50.0,7.54979e-6
l-50.0,7.54979e-6
l5.9624404e-7,-50.0
l50.0,8.742278e-6
l5.9624404e-7,-50.0
l5.9624404e-7,-50.0
l-50.0,7.54979e-6
l9.7353595e-6,50.0
l-50.0,7.54979e-6
l5.9624404e-7,-50.0
l-50.0,7.54979e-6
l9.7353595e-6,50.0
l9.7353595e-6,50.0
l50.0,-1.1920929e-5
l9.7353595e-6,50.0
l-50.0,7.54979e-6
l-50.0,7.54979e-6
l5.9624404e-7,-50.0
l-50.0,7.54979e-6
l9.7353595e-6,50.0
l-50.0,7.54979e-6
l-50.0,7.54979e-6
l5.9624404e-7,-50.0
l50.0,8.742278e-6
l5.9624404e-7,-50.0
l-50.0,7.54979e-6
l5.9624404e-7,-50.0
l50.0,8.742278e-6
l50.0,8.742278e-6
l-1.6888313e-5,50.0
l50.0,8.742278e-6
l5.9624404e-7,-50.0
l5.9624404e-7,-50.0
l-50.0,7.54979e-6
l5.9624404e-7,-50.0
l50.0,8.742278e-6
l5.9624404e-7,-50.0
l5.9624404e-7,-50.0
l-50.0,7.54979e-6
l9.7353595e-6,50.0
l-50.0,7.54979e-6
l5.9624404e-7,-50.0
l-50.0,7.54979e-6
l9.7353595e-6,50.0
l9.7353595e-6,50.0
l50.0,-1.1920929e-5
l9.7353595e-6,50.0
l-50.0,7.54979e-6
l-50.0,7.54979e-6
l-50.0,7.54979e-6
l5.9624404e-7,-50.0
l50.0,8.742278e-6
l5.9624404e-7,-50.0
l5.9624404e-7,-50.0
l-50.0,7.54979e-6
l9.7353595e-6,50.0
l-50.0,7.54979e-6
l5.9624404e-7,-50.0
l-50.0,7.54979e-6
l9.7353595e-6,50.0
l9.7353595e-6,50.0
l50.0,-1.1920929e-5
l9.7353595e-6,50.0
l-50.0,7.54979e-6
l9.7353595e-6,50.0
l9.7353595e-6,50.0
l50.0,-1.1920929e-5
l-1.4106498e-5,-50.0
l50.0,-1.1920929e-5
l50.0,-1.1920929e-5
l9.7353595e-6,50.0
l-50.0,7.54979e-6
l9.7353595e-6,50.0
l50.0,-1.1920929e-5
l9.7353595e-6,50.0
l-50.0,7.54979e-6
l-50.0,7.54979e-6
l5.9624404e-7,-50.0
l-50.0,7.54979e-6
l9.7353595e-6,50.0
l9.7353595e-6,50.0
l9.7353595e-6,50.0
l50.0,-1.1920929e-5
l-1.4106498e-5,-50.0
l50.0,-1.1920929e-5
l50.0,-1.1920929e-5
l9.7353595e-6,50.0
l-50.0,7.54979e-6
l9.7353595e-6,50.0
l50.0,-1.1920929e-5
l9.7353595e-6,50.0
l-50.0,7.54979e-6
l-50.0,7.54979e-6
l5.9624404e-7,-50.0
l-50.0,7.54979e-6
l9.7353595e-6,50.0
l9.7353595e-6,50.0
l50.0,-1.1920929e-5
l9.7353595e-6,50.0
l-50.0,7.54979e-6
l9.7353595e-6,50.0
l9.7353595e-6,50.0
l50.0,-1.1920929e-5
l-1.4106498e-5,-50.0
l50.0,-1.1920929e-5
l9.7353595e-6,50.0
l50.0,-1.1920929e-5
l-1.4106498e-5,-50.0
l-1.4106498e-5,-50.0
l-50.0,1.6292068e-5
l-1.4106498e-5,-50.0
l50.0,-1.1920929e-5
l50.0,-1.1920929e-5
l50.0,-1.1920929e-5
l9.7353595e-6,50.0
l-50.0,7.54979e-6
l9.7353595e-6,50.0
l9.7353595e-6,50.0
l50.0,-1.1920929e-5
l-1.4106498e-5,-50.0
l50.0,-1.1920929e-5
l9.7353595e-6,50.0
l50.0,-1.1920929e-5
l-1.4106498e-5,-50.0
l-1.4106498e-5,-50.0
l-50.0,1.6292068e-5
l-1.4106498e-5,-50.0
l50.0,-1.1920929e-5
l-1.4106498e-5,-50.0
l-1.4106498e-5,-50.0
l-50.0,1.6292068e-5
l2.4438103e-5,50.0
l-50.0,1.6292068e-5
l-50.0,1.6292068e-5
l-1.4106498e-5,-50.0
l50.0,-1.1920929e-5
l-1.4106498e-5,-50.0
l-50.0,1.6292068e-5
l-1.4106498e-5,-50.0
l50.0,-1.1920929e-5
l50.0,-1.1920929e-5
l9.7353595e-6,50.0
l50.0,-1.1920929e-5
l-1.4106498e-5,-50.0
l50.0,-1.1920929e-5
l50.0,-1.1920929e-5
l9.7353595e-6,50.0
l-50.0,7.54979e-6
l9.7353595e-6,50.0
l9.7353595e-6,50.0
l50.0,-1.1920929e-5
l-1.4106498e-5,-50.0
l50.0,-1.1920929e-5
l9.7353595e-6,50.0
l50.0,-1.1920929e-5
l-1.4106498e-5,-50.0
l-1.4106498e-5,-50.0
l-50.0,1.6292068e-5
l-1.4106498e-5,-50.0
l50.0,-1.1920929e-5
l50.0,-1.1920929e-5
l9.7353595e-6,50.0
l50.0,-1.1920929e-5
l-1.4106498e-5,-50.0
l50.0,-1.1920929e-5
l50.0,-1.1920929e-5
l9.7353595e-6,50.0
l-50.0,7.54979e-6
l9.7353595e-6,50.0
l50.0,-1.1920929e-5
l9.7353595e-6,50.0
l-50.0,7.54979e-6
l-50.0,7.54979e-6
l5.9624404e-7,-50.0
l-50.0,7.54979e-6
l9.7353595e-6,50.0
l9.7353595e-6,50.0
l9.7353595e-6,50.0
l50.0,-1.1920929e-5
l-1.4106498e-5,-50.0
l50.0,-1.1920929e-5
l50.0,-1.1920929e-5
l9.7353595e-6,50.0
l-50.0,7.54979e-6
l9.7353595e-6,50.0
l50.0,-1.1920929e-5
l9.7353595e-6,50.0
l-50.0,7.54979e-6
l-50.0,7.54979e-6
l5.9624404e-7,-50.0
l-50.0,7.54979e-6
l9.7353595e-6,50.0
l-50.0,7.54979e-6
l-50.0,7.54979e-6
l5.9624404e-7,-50.0
l50.0,8.742278e-6
l5.9624404e-7,-50.0
l5.9624404e-7,-50.0
l-50.0,7.54979e-6
l9.7353595e-6,50.0
l-50.0,7.54979e-6
l5.9624404e-7,-50.0
l-50.0,7.54979e-6
l9.7353595e-6,50.0
l9.7353595e-6,50.0
l50.0,-1.1920929e-5
l9.7353595e-6,50.0
l-50.0,7.54979e-6
l9.7353595e-6,50.0
l50.0,-1.1920929e-5
l9.7353595e-6,50.0
l-50.0,7.54979e-6
l9.7353595e-6,50.0
l9.7353595e-6,50.0
l50.0,-1.1920929e-5
l-1.4106498e-5,-50.0
l50.0,-1.1920929e-5
l9.7353595e-6,50.0
l50.0,-1.1920929e-5
l-1.4106498e-5,-50.0
l-1.4106498e-5,-50.0
l-50.0,1.6292068e-5
l-1.4106498e-5,-50.0
l50.0,-1.1920929e-5
l50.0,-1.1920929e-5
l9.7353595e-6,50.0
l50.0,-1.1920929e-5
l-1.4106498e-5,-50.0
l50.0,-1.1920929e-5
l50.0,-1.1920929e-5
l9.7353595e-6,50.0
l-50.0,7.54979e-6
l9.7353595e-6,50.0
l50.0,-1.1920929e-5
l9.7353595e-6,50.0
l-50.0,7.54979e-6
l-50.0,7.54979e-6
l5.9624404e-7,-50.0
l-50.0,7.54979e-6
l9.7353595e-6,50.0
l9.7353595e-6,50.0
l9.7353595e-6,50.0
l50.0,-1.1920929e-5
l-1.4106498e-5,-50.0
l50.0,-1.1920929e-5
l50.0,-1.1920929e-5
l9.7353595e-6,50.0
l-50.0,7.54979e-6
l9.7353595e-6,50.0
l50.0,-1.1920929e-5
l9.7353595e-6,50.0
l-50.0,7.54979e-6
l-50.0,7.54979e-6
l5.9624404e-7,-50.0
l-50.0,7.54979e-6
l9.7353595e-6,50.0
l-50.0,7.54979e-6
l-50.0,7.54979e-6
l5.9624404e-7,-50.0
l50.0,8.742278e-6
l5.9624404e-7,-50.0
l5.9624404e-7,-50.0
l-50.0,7.54979e-6
l9.7353595e-6,50.0
l-50.0,7.54979e-6
l5.9624404e-7,-50.0
l-50.0,7.54979e-6
l9.7353595e-6,50.0
l9.7353595e-6,50.0
l50.0,-1.1920929e-5
l9.7353595e-6,50.0
l-50.0,7.54979e-6
l-50.0,7.54979e-6
l5.9624404e-7,-50.0
l-50.0,7.54979e-6
l9.7353595e-6,50.0
l-50.0,7.54979e-6
l-50.0,7.54979e-6
l5.9624404e-7,-50.0
l50.0,8.742278e-6
l5.9624404e-7,-50.0
l-50.0,7.54979e-6
l5.9624404e-7,-50.0
l50.0,8.742278e-6
l50.0,8.742278e-6
l-1.6888313e-5,50.0
l50.0,8.742278e-6
l5.9624404e-7,-50.0
l5.9624404e-7,-50.0
l-50.0,7.54979e-6
l5.9624404e-7,-50.0
l50.0,8.742278e-6
l5.9624404e-7,-50.0
l5.9624404e-7,-50.0
l-50.0,7.54979e-6
l9.7353595e-6,50.0
l-50.0,7.54979e-6
l5.9624404e-7,-50.0
l-50.0,7.54979e-6
l9.7353595e-6,50.0
l9.7353595e-6,50.0
l50.0,-1.1920929e-5
l9.7353595e-6,50.0
l-50.0,7.54979e-6
l-50.0,7.54979e-6
l-50.0,7.54979e-6
l5.9624404e-7,-50.0
l50.0,8.742278e-6
l5.9624404e-7,-50.0
l5.9624404e-7,-50.0
l-50.0,7.54979e-6
l9.7353595e-6,50.0
l-50.0,7.54979e-6
l5.9624404e-7,-50.0
l-50.0,7.54979e-6
l9.7353595e-6,50.0
l9.7353595e-6,50.0
l50.0,-1.1920929e-5
l9.7353595e-6,50.0
l-50.0,7.54979e-6
l9.7353595e-6,50.0
l9.7353595e-6,50.0
l50.0,-1.1920929e-5
l-1.4106498e-5,-50.0
l50.0,-1.1920929e-5
l50.0,-1.1920929e-5
l9.7353595e-6,50.0
l-50.0,7.54979e-6
l9.7353595e-6,50.0
l50.0,-1.1920929e-5
l9.7353595e-6,50.0
l-50.0,7.54979e-6
l-50.0,7.54979e-6
l5.9624404e-7,-50.0
l-50.0,7.54979e-6
l9.7353595e-6,50.0
l-50.0,7.54979e-6
l-50.0,7.54979e-6
l5.9624404e-7,-50.0
l50.0,8.742278e-6
l5.9624404e-7,-50.0
l5.9624404e-7,-50.0
l-50.0,7.54979e-6
l9.7353595e-6,50.0
l-50.0,7.54979e-6
l5.9624404e-7,-50.0
l-50.0,7.54979e-6
l9.7353595e-6,50.0
l9.7353595e-6,50.0
l50.0,-1.1920929e-5
l9.7353595e-6,50.0
l-50.0,7.54979e-6
l-50.0,7.54979e-6
l5.9624404e-7,-50.0
l-50.0,7.54979e-6
l9.7353595e-6,50.0
l-50.0,7.54979e-6
l-50.0,7.54979e-6
l5.9624404e-7,-50.0
l50.0,8.742278e-6
l5.9624404e-7,-50.0
l-50.0,7.54979e-6
l5.9624404e-7,-50.0
l50.0,8.742278e-6
l50.0,8.742278e-6
l-1.6888313e-5,50.0
l50.0,8.742278e-6
l5.9624404e-7,-50.0
l5.9624404e-7,-50.0
l5.9624404e-7,-50.0
l-50.0,7.54979e-6
l9.7353595e-6,50.0
l-50.0,7.54979e-6
l-50.0,7.54979e-6
l5.9624404e-7,-50.0
l50.0,8.742278e-6
l5.9624404e-7,-50.0
l-50.0,7.54979e-6
l5.9624404e-7,-50.0
l50.0,8.742278e-6
l50.0,8.742278e-6
l-1.6888313e-5,50.0
l50.0,8.742278e-6
l5.9624404e-7,-50.0
l50.0,8.742278e-6
l50.0,8.742278e-6
l-1.6888313e-5,50.0
l-50.0,-1.1924881e-6
l6.953546e-6,50.0
l6.953546e-6,50.0
l50.0,-1.509958e-5
l-2.3245615e-5,-50.0
l50.0,-1.509958e-5
l6.953546e-6,50.0
l50.0,-1.509958e-5
l-2.3245615e-5,-50.0
l-2.3245615e-5,-50.0
l-50.0,3.1391646e-5
l-2.3245615e-5,-50.0
l50.0,-1.509958e-5
l-2.3245615e-5,-50.0
l-2.3245615e-5,-50.0
l-50.0,3.1391646e-5
l3.3577217e-5,50.0
l-50.0,3.1391646e-5
l-50.0,3.1391646e-5
l-2.3245615e-5,-50.0
l50.0,-1.509958e-5
l-2.3245615e-5,-50.0
l-50.0,3.1391646e-5
l-2.3245615e-5,-50.0
l50.0,-1.509958e-5
l50.0,-1.509958e-5
l6.953546e-6,50.0
l50.0,-1.509958e-5
l-2.3245615e-5,-50.0
l-2.3245615e-5,-50.0
l-50.0,3.1391646e-5
l-2.3245615e-5,-50.0
l50.0,-1.509958e-5
l-2.3245615e-5,-50.0
l-2.3245615e-5,-50.0
l-50.0,3.1391646e-5
l3.3577217e-5,50.0
l-50.0,3.1391646e-5
l-2.3245615e-5,-50.0
l-50.0,3.1391646e-5
l3.3577217e-5,50.0
l3.3577217e-5,50.0
l50.0,-3.5762787e-5
l3.3577217e-5,50.0
l-50.0,3.1391646e-5
l-50.0,3.1391646e-5
l-50.0,3.1391646e-5
l-2.3245615e-5,-50.0
l50.0,-1.509958e-5
l-2.3245615e-5,-50.0
l-2.3245615e-5,-50.0
l-50.0,3.1391646e-5
l3.3577217e-5,50.0
l-50.0,3.1391646e-5
l-2.3245615e-5,-50.0
l-50.0,3.1391646e-5
l3.3577217e-5,50.0
l3.3577217e-5,50.0
l50.0,-3.5762787e-5
l3.3577217e-5,50.0
l-50.0,3.1391646e-5
l3.3577217e-5,50.0
l3.3577217e-5,50.0
l50.0,-3.5762787e-5
l-3.7948357e-5,-50.0
l50.0,-3.5762787e-5
l50.0,-3.5762787e-5
l3.3577217e-5,50.0
l-50.0,3.1391646e-5
l3.3577217e-5,50.0
l50.0,-3.5762787e-5
l3.3577217e-5,50.0
l-50.0,3.1391646e-5
l-50.0,3.1391646e-5
l-2.3245615e-5,-50.0
l-50.0,3.1391646e-5
l3.3577217e-5,50.0
l-50.0,3.1391646e-5
l-2.3245615e-5,-50.0
l-50.0,3.1391646e-5
l3.3577217e-5,50.0
l-50.0,3.1391646e-5
l-50.0,3.1391646e-5
l-2.3245615e-5,-50.0
l50.0,-1.509958e-5
l-2.3245615e-5,-50.0
l-50.0,3.1391646e-5
l-2.3245615e-5,-50.0
l50.0,-1.509958e-5
l50.0,-1.509958e-5
l6.953546e-6,50.0
l50.0,-1.509958e-5
l-2.3245615e-5,-50.0
l-2.3245615e-5,-50.0
l-50.0,3.1391646e-5
l-2.3245615e-5,-50.0
l50.0,-1.509958e-5
l-2.3245615e-5,-50.0
l-2.3245615e-5,-50.0
l-50.0,3.1391646e-5
l3.3577217e-5,50.0
l-50.0,3.1391646e-5
l-2.3245615e-5,-50.0
l-50.0,3.1391646e-5
l3.3577217e-5,50.0
l3.3577217e-5,50.0
l50.0,-3.5762787e-5
l3.3577217e-5,50.0
l-50.0,3.1391646e-5
l-50.0,3.1391646e-5
l-50.0,3.1391646e-5
l-2.3245615e-5,-50.0
l50.0,-1.509958e-5
l-2.3245615e-5,-50.0
l-2.3245615e-5,-50.0
l-50.0,3.1391646e-5
l3.3577217e-5,50.0
l-50.0,3.1391646e-5
l-2.3245615e-5,-50.0
l-50.0,3.1391646e-5
l3.3577217e-5,50.0
l3.3577217e-5,50.0
l50.0,-3.5762787e-5
l3.3577217e-5,50.0
l-50.0,3.1391646e-5
l3.3577217e-5,50.0
l3.3577217e-5,50.0
l50.0,-3.5762787e-5
l-3.7948357e-5,-50.0
l50.0,-3.5762787e-5
l50.0,-3.5762787e-5
l3.3577217e-5,50.0
l-50.0,3.1391646e-5
l3.3577217e-5,50.0
l50.0,-3.5762787e-5
l3.3577217e-5,50.0
l-50.0,3.1391646e-5
l-50.0,3.1391646e-5
l-2.3245615e-5,-50.0
l-50.0,3.1391646e-5
l3.3577217e-5,50.0
l3.3577217e-5,50.0
l50.0,-3.5762787e-5
l3.3577217e-5,50.0
l-50.0,3.1391646e-5
l3.3577217e-5,50.0
l3.3577217e-5,50.0
l50.0,-3.5762787e-5
l-3.7948357e-5,-50.0
l50.0,-3.5762787e-5
l3.3577217e-5,50.0
l50.0,-3.5762787e-5
l-3.7948357e-5,-50.0
l-3.7948357e-5,-50.0
l-50.0,4.0133928e-5
l-3.7948357e-5,-50.0
l50.0,-3.5762787e-5
l50.0,-3.5762787e-5
l3.3577217e-5,50.0
l50.0,-3.5762787e-5
l-3.7948357e-5,-50.0
l50.0,-3.5762787e-5
l50.0,-3.5762787e-5
l3.3577217e-5,50.0
l-50.0,3.1391646e-5
l3.3577217e-5,50.0
l50.0,-3.5762787e-5
l3.3577217e-5,50.0
l-50.0,3.1391646e-5
l-50.0,3.1391646e-5
l-2.3245615e-5,-50.0
l-50.0,3.1391646e-5
l3.3577217e-5,50.0
l3.3577217e-5,50.0
l3.3577217e-5,50.0
l50.0,-3.5762787e-5
l-3.7948357e-5,-50.0
l50.0,-3.5762787e-5
l50.0,-3.5762787e-5
l3.3577217e-5,50.0
l-50.0,3.1391646e-5
l3.3577217e-5,50.0
l50.0,-3.5762787e-5
l3.3577217e-5,50.0
l-50.0,3.1391646e-5
l-50.0,3.1391646e-5
l-2.3245615e-5,-50.0
l-50.0,3.1391646e-5
l3.3577217e-5,50.0
l-50.0,3.1391646e-5
l-50.0,3.1391646e-5
l-2.3245615e-5,-50.0
l50.0,-1.509958e-5
l-2.3245615e-5,-50.0
l-2.3245615e-5,-50.0
l-50.0,3.1391646e-5
l3.3577217e-5,50.0
l-50.0,3.1391646e-5
l-2.3245615e-5,-50.0
l-50.0,3.1391646e-5
l3.3577217e-5,50.0
l3.3577217e-5,50.0
l50.0,-3.5762787e-5
l3.3577217e-5,50.0
l-50.0,3.1391646e-5
l3.3577217e-5,50.0
l3.3577217e-5,50.0
l50.0,-3.5762787e-5
l-3.7948357e-5,-50.0
l50.0,-3.5762787e-5
l50.0,-3.5762787e-5
l3.3577217e-5,50.0
l-50.0,3.1391646e-5
l3.3577217e-5,50.0
l50.0,-3.5762787e-5
l3.3577217e-5,50.0
l-50.0,3.1391646e-5
l-50.0,3.1391646e-5
l-2.3245615e-5,-50.0
l-50.0,3.1391646e-5
l3.3577217e-5,50.0
l3.3577217e-5,50.0
l50.0,-3.5762787e-5
l3.3577217e-5,50.0
l-50.0,3.1391646e-5
l3.3577217e-5,50.0
l3.3577217e-5,50.0
l50.0,-3.5762787e-5
l-3.7948357e-5,-50.0
l50.0,-3.5762787e-5
l3.3577217e-5,50.0
l50.0,-3.5762787e-5
l-3.7948357e-5,-50.0
l-3.7948357e-5,-50.0
l-50.0,4.0133928e-5
l-3.7948357e-5,-50.0
l50.0,-3.5762787e-5
l50.0,-3.5762787e-5
l50.0,-3.5762787e-5
l3.3577217e-5,50.0
l-50.0,3.1391646e-5
l3.3577217e-5,50.0
l3.3577217e-5,50.0
l50.0,-3.5762787e-5
l-3.7948357e-5,-50.0
l50.0,-3.5762787e-5
l3.3577217e-5,50.0
l50.0,-3.5762787e-5
l-3.7948357e-5,-50.0
l-3.7948357e-5,-50.0
l-50.0,4.0133928e-5
l-3.7948357e-5,-50.0
l50.0,-3.5762787e-5
l-3.7948357e-5,-50.0
l-3.7948357e-5,-50.0
l-50.0,4.0133928e-5
l4.827996e-5,50.0
l-50.0,4.0133928e-5
l-50.0,4.0133928e-5
l-3.7948357e-5,-50.0
l50.0,-3.5762787e-5
l-3.7948357e-5,-50.0
l-50.0,4.0133928e-5
l-3.7948357e-5,-50.0
l50.0,-3.5762787e-5
l50.0,-3.5762787e-5
l3.3577217e-5,50.0
l50.0,-3.5762787e-5
l-3.7948357e-5,-50.0
l50.0,-3.5762787e-5
l50.0,-3.5762787e-5
l3.3577217e-5,50.0
l-50.0,3.1391646e-5
l3.3577217e-5,50.0
l3.3577217e-5,50.0
l50.0,-3.5762787e-5
l-3.7948357e-5,-50.0
l50.0,-3.5762787e-5
l3.3577217e-5,50.0
l50.0,-3.5762787e-5
l-3.7948357e-5,-50.0
l-3.7948357e-5,-50.0
l-50.0,4.0133928e-5
l-3.7948357e-5,-50.0
l50.0,-3.5762787e-5
l50.0,-3.5762787e-5
l3.3577217e-5,50.0
l50.0,-3.5762787e-5
l-3.7948357e-5,-50.0
l50.0,-3.5762787e-5
l50.0,-3.5762787e-5
l3.3577217e-5,50.0
l-50.0,3.1391646e-5
l3.3577217e-5,50.0
l50.0,-3.5762787e-5
l3.3577217e-5,50.0
l-50.0,3.1391646e-5
l-50.0,3.1391646e-5
l-2.3245615e-5,-50.0
l-50.0,3.1391646e-5
l3.3577217e-5,50.0
l3.3577217e-5,50.0
l3.3577217e-5,50.0
l50.0,-3.5762787e-5
l-3.7948357e-5,-50.0
l50.0,-3.5762787e-5
l50.0,-3.5762787e-5
l3.3577217e-5,50.0
l-50.0,3.1391646e-5
l3.3577217e-5,50.0
l50.0,-3.5762787e-5
l3.3577217e-5,50.0
l-50.0,3.1391646e-5
l-50.0,3.1391646e-5
l-2.3245615e-5,-50.0
l-50.0,3.1391646e-5
l3.3577217e-5,50.0
l-50.0,3.1391646e-5
l-50.0,3.1391646e-5
l-2.3245615e-5,-50.0
l50.0,-1.509958e-5
l-2.3245615e-5,-50.0
l-2.3245615e-5,-50.0
l-50.0,3.1391646e-5
l3.3577217e-5,50.0
l-50.0,3.1391646e-5
l-2.3245615e-5,-50.0
l-50.0,3.1391646e-5
l3.3577217e-5,50.0
l3.3577217e-5,50.0
l50.0,-3.5762787e-5
l3.3577217e-5,50.0
l-50.0,3.1391646e-5
l3.3577217e-5,50.0
l50.0,-3.5762787e-5
l3.3577217e-5,50.0
l-50.0,3.1391646e-5
l3.3577217e-5,50.0
l3.3577217e-5,50.0
l50.0,-3.5762787e-5
l-3.7948357e-5,-50.0
l50.0,-3.5762787e-5
l3.3577217e-5,50.0
l50.0,-3.5762787e-5
l-3.7948357e-5,-50.0
l-3.7948357e-5,-50.0
l-50.0,4.0133928e-5
l-3.7948357e-5,-50.0
l50.0,-3.5762787e-5
l50.0,-3.5762787e-5
l3.3577217e-5,50.0
l50.0,-3.5762787e-5
l-3.7948357e-5,-50.0
l50.0,-3.5762787e-5
l50.0,-3.5762787e-5
l3.3577217e-5,50.0
l-50.0,3.1391646e-5
l3.3577217e-5,50.0
l50.0,-3.5762787e-5
l3.3577217e-5,50.0
l-50.0,3.1391646e-5
l-50.0,3.1391646e-5
l-2.3245615e-5,-50.0
l-50.0,3.1391646e-5
l3.3577217e-5,50.0
l3.3577217e-5,50.0
l3.3577217e-5,50.0
l50.0,-3.5762787e-5
l-3.7948357e-5,-50.0
l50.0,-3.5762787e-5
l50.0,-3.5762787e-5
l3.3577217e-5,50.0
l-50.0,3.1391646e-5
l3.3577217e-5,50.0
l50.0,-3.5762787e-5
l3.3577217e-5,50.0
l-50.0,3.1391646e-5
l-50.0,3.1391646e-5
l-2.3245615e-5,-50.0
l-50.0,3.1391646e-5
l3.3577217e-5,50.0
l-50.0,3.1391646e-5
l-50.0,3.1391646e-5
l-2.3245615e-5,-50.0
l50.0,-1.509958e-5
l-2.3245615e-5,-50.0
l-2.3245615e-5,-50.0
l-50.0,3.1391646e-5
l3.3577217e-5,50.0
l-50.0,3.1391646e-5
l-2.3245615e-5,-50.0
l-50.0,3.1391646e-5
l3.3577217e-5,50.0
l3.3577217e-5,50.0
l50.0,-3.5762787e-5
l3.3577217e-5,50.0
l-50.0,3.1391646e-5
l-50.0,3.1391646e-5
l-2.3245615e-5,-50.0
l-50.0,3.1391646e-5
l3.3577217e-5,50.0
l-50.0,3.1391646e-5
l-50.0,3.1391646e-5
l-2.3245615e-5,-50.0
l50.0,-1.509958e-5
l-2.3245615e-5,-50.0
l-50.0,3.1391646e-5
l-2.3245615e-5,-50.0
l50.0,-1.509958e-5
l50.0,-1.509958e-5
l6.953546e-6,50.0
l50.0,-1.509958e-5
l-2.3245615e-5,-50.0
l-2.3245615e-5,-50.0
l-50.0,3.1391646e-5
l-2.3245615e-5,-50.0
l50.0,-1.509958e-5
l-2.3245615e-5,-50.0
l-2.3245615e-5,-50.0
l-50.0,3.1391646e-5
l3.3577217e-5,50.0
l-50.0,3.1391646e-5
l-2.3245615e-5,-50.0
l-50.0,3.1391646e-5
l3.3577217e-5,50.0
l3.3577217e-5,50.0
l50.0,-3.5762787e-5
l3.3577217e-5,50.0
l-50.0,3.1391646e-5
l-50.0,3.1391646e-5
l-50.0,3.1391646e-5
l-2.3245615e-5,-50.0
l50.0,-1.509958e-5
l-2.3245615e-5,-50.0
l-2.3245615e-5,-50.0
l-50.0,3.1391646e-5
l3.3577217e-5,50.0
l-50.0,3.1391646e-5
l-2.3245615e-5,-50.0
l-50.0,3.1391646e-5
l3.3577217e-5,50.0
l3.3577217e-5,50.0
l50.0,-3.5762787e-5
l3.3577217e-5,50.0
l-50.0,3.1391646e-5
l3.3577217e-5,50.0
l3.3577217e-5,50.0
l50.0,-3.5762787e-5
l-3.7948357e-5,-50.0
l50.0,-3.5762787e-5
l50.0,-3.5762787e-5
l3.3577217e-5,50.0
l-50.0,3.1391646e-5
l3.3577217e-5,50.0
l50.0,-3.5762787e-5
l3.3577217e-5,50.0
l-50.0,3.1391646e-5
l-50.0,3.1391646e-5
l-2.3245615e-5,-50.0
l-50.0,3.1391646e-5
l3.3577217e-5,50.0
l3.3577217e-5,50.0
l50.0,-3.5762787e-5
l3.3577217e-5,50.0
l-50.0,3.1391646e-5
l3.3577217e-5,50.0
l3.3577217e-5,50.0
l50.0,-3.5762787e-5
l-3.7948357e-5,-50.0
l50.0,-3.5762787e-5
l3.3577217e-5,50.0
l50.0,-3.5762787e-5
l-3.7948357e-5,-50.0
l-3.7948357e-5,-50.0
l-50.0,4.0133928e-5
l-3.7948357e-5,-50.0
l50.0,-3.5762787e-5
l50.0,-3.5762787e-5
l3.3577217e-5,50.0
l50.0,-3.5762787e-5
l-3.7948357e-5,-50.0
l50.0,-3.5762787e-5
l50.0,-3.5762787e-5
l3.3577217e-5,50.0
l-50.0,3.1391646e-5
l3.3577217e-5,50.0
l50.0,-3.5762787e-5
l3.3577217e-5,50.0
l-50.0,3.1391646e-5
l-50.0,3.1391646e-5
l-2.3245615e-5,-50.0
l-50.0,3.1391646e-5
l3.3577217e-5,50.0
l3.3577217e-5,50.0
l3.3577217e-5,50.0
l50.0,-3.5762787e-5
l-3.7948357e-5,-50.0
l50.0,-3.5762787e-5
l50.0,-3.5762787e-5
l3.3577217e-5,50.0
l-50.0,3.1391646e-5
l3.3577217e-5,50.0
l50.0,-3.5762787e-5
l3.3577217e-5,50.0
l-50.0,3.1391646e-5
l-50.0,3.1391646e-5
l-2.3245615e-5,-50.0
l-50.0,3.1391646e-5
l3.3577217e-5,50.0
l-50.0,3.1391646e-5
l-50.0,3.1391646e-5
l-2.3245615e-5,-50.0
l50.0,-1.509958e-5
l-2.3245615e-5,-50.0
l-2.3245615e-5,-50.0
l-50.0,3.1391646e-5
l3.3577217e-5,50.0
l-50.0,3.1391646e-5
l-2.3245615e-5,-50.0
l-50.0,3.1391646e-5
l3.3577217e-5,50.0
l3.3577217e-5,50.0
l50.0,-3.5762787e-5
l3.3577217e-5,50.0
l-50.0,3.1391646e-5
l3.3577217e-5,50.0
l3.3577217e-5,50.0
l50.0,-3.5762787e-5
l-3.7948357e-5,-50.0
l50.0,-3.5762787e-5
l50.0,-3.5762787e-5
l3.3577217e-5,50.0
l-50.0,3.1391646e-5
l3.3577217e-5,50.0
l50.0,-3.5762787e-5
l3.3577217e-5,50.0
l-50.0,3.1391646e-5
l-50.0,3.1391646e-5
l-2.3245615e-5,-50.0
l-50.0,3.1391646e-5
l3.3577217e-5,50.0
l3.3577217e-5,50.0
l50.0,-3.5762787e-5
l3.3577217e-5,50.0
l-50.0,3.1391646e-5
l3.3577217e-5,50.0
l3.3577217e-5,50.0
l50.0,-3.5762787e-5
l-3.7948357e-5,-50.0
l50.0,-3.5762787e-5
l3.3577217e-5,50.0
l50.0,-3.5762787e-5
l-3.7948357e-5,-50.0
l-3.7948357e-5,-50.0
l-50.0,4.0133928e-5
l-3.7948357e-5,-50.0
l50.0,-3.5762787e-5
l50.0,-3.5762787e-5
l50.0,-3.5762787e-5
l3.3577217e-5,50.0
l-50.0,3.1391646e-5
l3.3577217e-5,50.0
l3.3577217e-5,50.0
l50.0,-3.5762787e-5
l-3.7948357e-5,-50.0
l50.0,-3.5762787e-5
l3.3577217e-5,50.0
l50.0,-3.5762787e-5
l-3.7948357e-5,-50.0
l-3.7948357e-5,-50.0
l-50.0,4.0133928e-5
l-3.7948357e-5,-50.0
l50.0,-3.5762787e-5
l-3.7948357e-5,-50.0
l-3.7948357e-5,-50.0
l-50.0,4.0133928e-5
l4.827996e-5,50.0
l-50.0,4.0133928e-5
l-50.0,4.0133928e-5
l-3.7948357e-5,-50.0
l50.0,-3.5762787e-5
l-3.7948357e-5,-50.0
l-50.0,4.0133928e-5
l-3.7948357e-5,-50.0
l50.0,-3.5762787e-5
l50.0,-3.5762787e-5
l3.3577217e-5,50.0
l50.0,-3.5762787e-5
l-3.7948357e-5,-50.0
l50.0,-3.5762787e-5
l3.3577217e-5,50.0
l50.0,-3.5762787e-5
l-3.7948357e-5,-50.0
l50.0,-3.5762787e-5
l50.0,-3.5762787e-5
l3.3577217e-5,50.0
l-50.0,3.1391646e-5
l3.3577217e-5,50.0
l50.0,-3.5762787e-5
l3.3577217e-5,50.0
l-50.0,3.1391646e-5
l-50.0,3.1391646e-5
l-2.3245615e-5,-50.0
l-50.0,3.1391646e-5
l3.3577217e-5,50.0
l3.3577217e-5,50.0
l50.0,-3.5762787e-5
l3.3577217e-5,50.0
l-50.0,3.1391646e-5
l3.3577217e-5,50.0
l3.3577217e-5,50.0
l50.0,-3.5762787e-5
l-3.7948357e-5,-50.0
l50.0,-3.5762787e-5
l3.3577217e-5,50.0
l50.0,-3.5762787e-5
l-3.7948357e-5,-50.0
l-3.7948357e-5,-50.0
l-50.0,4.0133928e-5
l-3.7948357e-5,-50.0
l50.0,-3.5762787e-5
l50.0,-3.5762787e-5
l50.0,-3.5762787e-5
l3.3577217e-5,50.0
l-50.0,3.1391646e-5
l3.3577217e-5,50.0
l3.3577217e-5,50.0
l50.0,-3.5762787e-5
l-3.7948357e-5,-50.0
l50.0,-3.5762787e-5
l3.3577217e-5,50.0
l50.0,-3.5762787e-5
l-3.7948357e-5,-50.0
l-3.7948357e-5,-50.0
l-50.0,4.0133928e-5
l-3.7948357e-5,-50.0
l50.0,-3.5762787e-5
l-3.7948357e-5,-50.0
l-3.7948357e-5,-50.0
l-50.0,4.0133928e-5
l4.827996e-5,50.0
l-50.0,4.0133928e-5
l-50.0,4.0133928e-5
l-3.7948357e-5,-50.0
l50.0,-3.5762787e-5
l-3.7948357e-5,-50.0
l-50.0,4.0133928e-5
l-3.7948357e-5,-50.0
l50.0,-3.5762787e-5
l50.0,-3.5762787e-5
l3.3577217e-5,50.0
l50.0,-3.5762787e-5
l-3.7948357e-5,-50.0
l-3.7948357e-5,-50.0
l-50.0,4.0133928e-5
l-3.7948357e-5,-50.0
l50.0,-3.5762787e-5
l-3.7948357e-5,-50.0
l-3.7948357e-5,-50.0
l-50.0,4.0133928e-5
l4.827996e-5,50.0
l-50.0,4.0133928e-5
l-3.7948357e-5,-50.0
l-50.0,4.0133928e-5
l4.827996e-5,50.0
l4.827996e-5,50.0
l50.0,-5.6425994e-5
l4.827996e-5,50.0
l-50.0,4.0133928e-5
l-50.0,4.0133928e-5
l-3.7948357e-5,-50.0
l-50.0,4.0133928e-5
l4.827996e-5,50.0
l-50.0,4.0133928e-5
l-50.0,4.0133928e-5
l-3.7948357e-5,-50.0
l50.0,-3.5762787e-5
l-3.7948357e-5,-50.0
l-50.0,4.0133928e-5
l-3.7948357e-5,-50.0
l50.0,-3.5762787e-5
l50.0,-3.5762787e-5
l3.3577217e-5,50.0
l50.0,-3.5762787e-5
l-3.7948357e-5,-50.0
l-3.7948357e-5,-50.0
l-3.7948357e-5,-50.0
l-50.0,4.0133928e-5
l4.827996e-5,50.0
l-50.0,4.0133928e-5
l-50.0,4.0133928e-5
l-3.7948357e-5,-50.0
l50.0,-3.5762787e-5
l-3.7948357e-5,-50.0
l-50.0,4.0133928e-5
l-3.7948357e-5,-50.0
l50.0,-3.5762787e-5
l50.0,-3.5762787e-5
l3.3577217e-5,50.0
l50.0,-3.5762787e-5
l-3.7948357e-5,-50.0
l50.0,-3.5762787e-5
l50.0,-3.5762787e-5
l3.3577217e-5,50.0
l-50.0,3.1391646e-5
l3.3577217e-5,50.0
l3.3577217e-5,50.0
l50.0,-3.5762787e-5
l-3.7948357e-5,-50.0
l50.0,-3.5762787e-5
l3.3577217e-5,50.0
l50.0,-3.5762787e-5
l-3.7948357e-5,-50.0
l-3.7948357e-5,-50.0
l-50.0,4.0133928e-5
l-3.7948357e-5,-50.0
l50.0,-3.5762787e-5
l50.0,-3.5762787e-5
l50.0,-3.5762787e-5
l3.3577217e-5,50.0
l-50.0,3.1391646e-5
l3.3577217e-5,50.0
l3.3577217e-5,50.0
l50.0,-3.5762787e-5
l-3.7948357e-5,-50.0
l50.0,-3.5762787e-5
l3.3577217e-5,50.0
l50.0,-3.5762787e-5
l-3.7948357e-5,-50.0
l-3.7948357e-5,-50.0
l-50.0,4.0133928e-5
l-3.7948357e-5,-50.0
l50.0,-3.5762787e-5
l50.0,-3.5762787e-5
l3.3577217e-5,50.0
l50.0,-3.5762787e-5
l-3.7948357e-5,-50.0
l50.0,-3.5762787e-5
l50.0,-3.5762787e-5
l3.3577217e-5,50.0
l-50.0,3.1391646e-5
l3.3577217e-5,50.0
l50.0,-3.5762787e-5
l3.3577217e-5,50.0
l-50.0,3.1391646e-5
l-50.0,3.1391646e-5
l-2.3245615e-5,-50.0
l-50.0,3.1391646e-5
l3.3577217e-5,50.0
l3.3577217e-5,50.0
l3.3577217e-5,50.0
l50.0,-3.5762787e-5
l-3.7948357e-5,-50.0
l50.0,-3.5762787e-5
l50.0,-3.5762787e-5
l3.3577217e-5,50.0
l-50.0,3.1391646e-5
l3.3577217e-5,50.0
l50.0,-3.5762787e-5
l3.3577217e-5,50.0
l-50.0,3.1391646e-5
l-50.0,3.1391646e-5
l-2.3245615e-5,-50.0
l-50.0,3.1391646e-5
l3.3577217e-5,50.0
l-50.0,3.1391646e-5
l-50.0,3.1391646e-5
l-2.3245615e-5,-50.0
l50.0,-1.509958e-5
l-2.3245615e-5,-50.0
l-2.3245615e-5,-50.0
l-50.0,3.1391646e-5
l3.3577217e-5,50.0
l-50.0,3.1391646e-5
l-2.3245615e-5,-50.0
l-50.0,3.1391646e-5
l3.3577217e-5,50.0
l3.3577217e-5,50.0
l50.0,-3.5762787e-5
l3.3577217e-5,50.0
l-50.0,3.1391646e-5
l3.3577217e-5,50.0
l3.3577217e-5,50.0
l50.0,-3.5762787e-5
l-3.7948357e-5,-50.0
l50.0,-3.5762787e-5
l50.0,-3.5762787e-5
l3.3577217e-5,50.0
l-50.0,3.1391646e-5
l3.3577217e-5,50.0
l50.0,-3.5762787e-5
l3.3577217e-5,50.0
l-50.0,3.1391646e-5
l-50.0,3.1391646e-5
l-2.3245615e-5,-50.0
l-50.0,3.1391646e-5
l3.3577217e-5,50.0
l3.3577217e-5,50.0
l50.0,-3.5762787e-5
l3.3577217e-5,50.0
l-50.0,3.1391646e-5
l3.3577217e-5,50.0
l3.3577217e-5,50.0
l50.0,-3.5762787e-5
l-3.7948357e-5,-50.0
l50.0,-3.5762787e-5
l3.3577217e-5,50.0
l50.0,-3.5762787e-5
l-3.7948357e-5,-50.0
l-3.7948357e-5,-50.0
l-50.0,4.0133928e-5
l-3.7948357e-5,-50.0
l50.0,-3.5762787e-5
l50.0,-3.5762787e-5
l50.0,-3.5762787e-5
l3.3577217e-5,50.0
l-50.0,3.1391646e-5
l3.3577217e-5,50.0
l3.3577217e-5,50.0
l50.0,-3.5762787e-5
l-3.7948357e-5,-50.0
l50.0,-3.5762787e-5
l3.3577217e-5,50.0
l50.0,-3.5762787e-5
l-3.7948357e-5,-50.0
l-3.7948357e-5,-50.0
l-50.0,4.0133928e-5
l-3.7948357e-5,-50.0
l50.0,-3.5762787e-5
l-3.7948357e-5,-50.0
l-3.7948357e-5,-50.0
l-50.0,4.0133928e-5
l4.827996e-5,50.0
l-50.0,4.0133928e-5
l-50.0,4.0133928e-5
l-3.7948357e-5,-50.0
l50.0,-3.5762787e-5
l-3.7948357e-5,-50.0
l-50.0,4.0133928e-5
l-3.7948357e-5,-50.0
l50.0,-3.5762787e-5
l50.0,-3.5762787e-5
l3.3577217e-5,50.0
l50.0,-3.5762787e-5
l-3.7948357e-5,-50.0
l50.0,-3.5762787e-5
l3.3577217e-5,50.0
l50.0,-3.5762787e-5
l-3.7948357e-5,-50.0
l50.0,-3.5762787e-5
l50.0,-3.5762787e-5
l3.3577217e-5,50.0
l-50.0,3.1391646e-5
l3.3577217e-5,50.0
l50.0,-3.5762787e-5
l3.3577217e-5,50.0
l-50.0,3.1391646e-5
l-50.0,3.1391646e-5
l-2.3245615e-5,-50.0
l-50.0,3.1391646e-5
l3.3577217e-5,50.0
l3.3577217e-5,50.0
l50.0,-3.5762787e-5
l3.3577217e-5,50.0
l-50.0,3.1391646e-5
l3.3577217e-5,50.0
l3.3577217e-5,50.0
l50.0,-3.5762787e-5
l-3.7948357e-5,-50.0
l50.0,-3.5762787e-5
l3.3577217e-5,50.0
l50.0,-3.5762787e-5
l-3.7948357e-5,-50.0
l-3.7948357e-5,-50.0
l-50.0,4.0133928e-5
l-3.7948357e-5,-50.0
l50.0,-3.5762787e-5
l50.0,-3.5762787e-5
l50.0,-3.5762787e-5
l3.3577217e-5,50.0
l-50.0,3.1391646e-5
l3.3577217e-5,50.0
l3.3577217e-5,50.0
l50.0,-3.5762787e-5
l-3.7948357e-5,-50.0
l50.0,-3.5762787e-5
l3.3577217e-5,50.0
l50.0,-3.5762787e-5
l-3.7948357e-5,-50.0
l-3.7948357e-5,-50.0
l-50.0,4.0133928e-5
l-3.7948357e-5,-50.0
l50.0,-3.5762787e-5
l-3.7948357e-5,-50.0
l-3.7948357e-5,-50.0
l-50.0,4.0133928e-5
l4.827996e-5,50.0
l-50.0,4.0133928e-5
l-50.0,4.0133928e-5
l-3.7948357e-5,-50.0
l50.0,-3.5762787e-5
l-3.7948357e-5,-50.0
l-50.0,4.0133928e-5
l-3.7948357e-5,-50.0
l50.0,-3.5762787e-5
l50.0,-3.5762787e-5
l3.3577217e-5,50.0
l50.0,-3.5762787e-5
l-3.7948357e-5,-50.0
l-3.7948357e-5,-50.0
l-50.0,4.0133928e-5
l-3.7948357e-5,-50.0
l50.0,-3.5762787e-5
l-3.7948357e-5,-50.0
l-3.7948357e-5,-50.0
l-50.0,4.0133928e-5
l4.827996e-5,50.0
l-50.0,4.0133928e-5
l-3.7948357e-5,-50.0
l-50.0,4.0133928e-5
l4.827996e-5,50.0
l4.827996e-5,50.0
l50.0,-5.6425994e-5
l4.827996e-5,50.0
l-50.0,4.0133928e-5
l-50.0,4.0133928e-5
l-3.7948357e-5,-50.0
l-50.0,4.0133928e-5
l4.827996e-5,50.0
l-50.0,4.0133928e-5
l-50.0,4.0133928e-5
l-3.7948357e-5,-50.0
l50.0,-3.5762787e-5
l-3.7948357e-5,-50.0
l-50.0,4.0133928e-5
l-3.7948357e-5,-50.0
l50.0,-3.5762787e-5
l50.0,-3.5762787e-5
l3.3577217e-5,50.0
l50.0,-3.5762787e-5
l-3.7948357e-5,-50.0
l-3.7948357e-5,-50.0
l-3.7948357e-5,-50.0
l-50.0,4.0133928e-5
l4.827996e-5,50.0
l-50.0,4.0133928e-5
l-50.0,4.0133928e-5
l-3.7948357e-5,-50.0
l50.0,-3.5762787e-5
l-3.7948357e-5,-50.0
l-50.0,4.0133928e-5
l-3.7948357e-5,-50.0
l50.0,-3.5762787e-5
l50.0,-3.5762787e-5
l3.3577217e-5,50.0
l50.0,-3.5762787e-5
l-3.7948357e-5,-50.0
l50.0,-3.5762787e-5
l50.0,-3.5762787e-5
l3.3577217e-5,50.0
l-50.0,3.1391646e-5
l3.3577217e-5,50.0
l3.3577217e-5,50.0
l50.0,-3.5762787e-5
l-3.7948357e-5,-50.0
l50.0,-3.5762787e-5
l3.3577217e-5,50.0
l50.0,-3.5762787e-5
l-3.7948357e-5,-50.0
l-3.7948357e-5,-50.0
l-50.0,4.0133928e-5
l-3.7948357e-5,-50.0
l50.0,-3.5762787e-5
l-3.7948357e-5,-50.0
l-3.7948357e-5,-50.0
l-50.0,4.0133928e-5
l4.827996e-5,50.0
l-50.0,4.0133928e-5
l-50.0,4.0133928e-5
l-3.7948357e-5,-50.0
l50.0,-3.5762787e-5
l-3.7948357e-5,-50.0
l-50.0,4.0133928e-5
l-3.7948357e-5,-50.0
l50.0,-3.5762787e-5
l50.0,-3.5762787e-5
l3.3577217e-5,50.0
l50.0,-3.5762787e-5
l-3.7948357e-5,-50.0
l-3.7948357e-5,-50.0
l-50.0,4.0133928e-5
l-3.7948357e-5,-50.0
l50.0,-3.5762787e-5
l-3.7948357e-5,-50.0
l-3.7948357e-5,-50.0
l-50.0,4.0133928e-5
l4.827996e-5,50.0
l-50.0,4.0133928e-5
l-3.7948357e-5,-50.0
l-50.0,4.0133928e-5
l4.827996e-5,50.0
l4.827996e-5,50.0
l50.0,-5.6425994e-5
l4.827996e-5,50.0
l-50.0,4.0133928e-5
l-50.0,4.0133928e-5
l-50.0,4.0133928e-5
l-3.7948357e-5,-50.0
l50.0,-3.5762787e-5
l-3.7948357e-5,-50.0
l-3.7948357e-5,-50.0
l-50.0,4.0133928e-5
l4.827996e-5,50.0
l-50.0,4.0133928e-5
l-3.7948357e-5,-50.0
l-50.0,4.0133928e-5
l4.827996e-5,50.0
l4.827996e-5,50.0
l50.0,-5.6425994e-5
l4.827996e-5,50.0
l-50.0,4.0133928e-5
l4.827996e-5,50.0
l4.827996e-5,50.0
l50.0,-5.6425994e-5
l-6.457203e-5,-50.0
l50.0,-5.6425994e-5
l50.0,-5.6425994e-5
l4.827996e-5,50.0
l-50.0,4.0133928e-5
l4.827996e-5,50.0
l50.0,-5.6425994e-5
l4.827996e-5,50.0
l-50.0,4.0133928e-5
l-50.0,4.0133928e-5
l-3.7948357e-5,-50.0
l-50.0,4.0133928e-5
l4.827996e-5,50.0
l-50.0,4.0133928e-5
l-50.0,4.0133928e-5
l-3.7948357e-5,-50.0
l50.0,-3.5762787e-5
l-3.7948357e-5,-50.0
l-3.7948357e-5,-50.0
l-50.0,4.0133928e-5
l4.827996e-5,50.0
l-50.0,4.0133928e-5
l-3.7948357e-5,-50.0
l-50.0,4.0133928e-5
l4.827996e-5,50.0
l4.827996e-5,50.0
l50.0,-5.6425994e-5
l4.827996e-5,50.0
l-50.0,4.0133928e-5
l-50.0,4.0133928e-5
l-3.7948357e-5,-50.0
l-50.0,4.0133928e-5
l4.827996e-5,50.0
l-50.0,4.0133928e-5
l-50.0,4.0133928e-5
l-3.7948357e-5,-50.0
l50.0,-3.5762787e-5
l-3.7948357e-5,-50.0
l-50.0,4.0133928e-5
l-3.7948357e-5,-50.0
l50.0,-3.5762787e-5
l50.0,-3.5762787e-5
l3.3577217e-5,50.0
l50.0,-3.5762787e-5
l-3.7948357e-5,-50.0
l-3.7948357e-5,-50.0
l-3.7948357e-5,-50.0
l-50.0,4.0133928e-5
l4.827996e-5,50.0
l-50.0,4.0133928e-5
l-50.0,4.0133928e-5
l-3.7948357e-5,-50.0
l50.0,-3.5762787e-5
l-3.7948357e-5,-50.0
l-50.0,4.0133928e-5
l-3.7948357e-5,-50.0
l50.0,-3.5762787e-5
l50.0,-3.5762787e-5
l3.3577217e-5,50.0
l50.0,-3.5762787e-5
l-3.7948357e-5,-50.0
l50.0,-3.5762787e-5
l50.0,-3.5762787e-5
l3.3577217e-5,50.0
l-50.0,3.1391646e-5
l3.3577217e-5,50.0
l3.3577217e-5,50.0
l50.0,-3.5762787e-5
l-3.7948357e-5,-50.0
l50.0,-3.5762787e-5
l3.3577217e-5,50.0
l50.0,-3.5762787e-5
l-3.7948357e-5,-50.0
l-3.7948357e-5,-50.0
l-50.0,4.0133928e-5
l-3.7948357e-5,-50.0
l50.0,-3.5762787e-5
l-3.7948357e-5,-50.0
l-50.0,4.0133928e-5
l-3.7948357e-5,-50.0
l50.0,-3.5762787e-5
l-3.7948357e-5,-50.0
l-3.7948357e-5,-50.0
l-50.0,4.0133928e-5
l4.827996e-5,50.0
l-50.0,4.0133928e-5
l-3.7948357e-5,-50.0
l-50.0,4.0133928e-5
l4.827996e-5,50.0
l4.827996e-5,50.0
l50.0,-5.6425994e-5
l4.827996e-5,50.0
l-50.0,4.0133928e-5
l-50.0,4.0133928e-5
l-3.7948357e-5,-50.0
l-50.0,4.0133928e-5
l4.827996e-5,50.0
l-50.0,4.0133928e-5
l-50.0,4.0133928e-5
l-3.7948357e-5,-50.0
l50.0,-3.5762787e-5
l-3.7948357e-5,-50.0
l-50.0,4.0133928e-5
l-3.7948357e-5,-50.0
l50.0,-3.5762787e-5
l50.0,-3.5762787e-5
l3.3577217e-5,50.0
l50.0,-3.5762787e-5
l-3.7948357e-5,-50.0
l-3.7948357e-5,-50.0
l-3.7948357e-5,-50.0
l-50.0,4.0133928e-5
l4.827996e-5,50.0
l-50.0,4.0133928e-5
l-50.0,4.0133928e-5
l-3.7948357e-5,-50.0
l50.0,-3.5762787e-5
l-3.7948357e-5,-50.0
l-50.0,4.0133928e-5
l-3.7948357e-5,-50.0
l50.0,-3.5762787e-5
l50.0,-3.5762787e-5
l3.3577217e-5,50.0
l50.0,-3.5762787e-5
l-3.7948357e-5,-50.0
l50.0,-3.5762787e-5
l50.0,-3.5762787e-5
l3.3577217e-5,50.0
l-50.0,3.1391646e-5
l3.3577217e-5,50.0
l3.3577217e-5,50.0
l50.0,-3.5762787e-5
l-3.7948357e-5,-50.0
l50.0,-3.5762787e-5
l3.3577217e-5,50.0
l50.0,-3.5762787e-5
l-3.7948357e-5,-50.0
l-3.7948357e-5,-50.0
l-50.0,4.0133928e-5
l-3.7948357e-5,-50.0
l50.0,-3.5762787e-5
l50.0,-3.5762787e-5
l3.3577217e-5,50.0
l50.0,-3.5762787e-5
l-3.7948357e-5,-50.0
l50.0,-3.5762787e-5
l50.0,-3.5762787e-5
l3.3577217e-5,50.0
l-50.0,3.1391646e-5
l3.3577217e-5,50.0
l50.0,-3.5762787e-5
l3.3577217e-5,50.0
l-50.0,3.1391646e-5
l-50.0,3.1391646e-5
l-2.3245615e-5,-50.0
l-50.0,3.1391646e-5
l3.3577217e-5,50.0
l3.3577217e-5,50.0
l50.0,-3.5762787e-5
l3.3577217e-5,50.0
l-50.0,3.1391646e-5
l3.3577217e-5,50.0
l3.3577217e-5,50.0
l50.0,-3.5762787e-5
l-3.7948357e-5,-50.0
l50.0,-3.5762787e-5
l3.3577217e-5,50.0
l50.0,-3.5762787e-5
l-3.7948357e-5,-50.0
l-3.7948357e-5,-50.0
l-50.0,4.0133928e-5
l-3.7948357e-5,-50.0
l50.0,-3.5762787e-5
l50.0,-3.5762787e-5
l50.0,-3.5762787e-5
l3.3577217e-5,50.0
l-50.0,3.1391646e-5
l3.3577217e-5,50.0
l3.3577217e-5,50.0
l50.0,-3.5762787e-5
l-3.7948357e-5,-50.0
l50.0,-3.5762787e-5
l3.3577217e-5,50.0
l50.0,-3.5762787e-5
l-3.7948357e-5,-50.0
l-3.7948357e-5,-50.0
l-50.0,4.0133928e-5
l-3.7948357e-5,-50.0
l50.0,-3.5762787e-5
l-3.7948357e-5,-50.0
l-3.7948357e-5,-50.0
l-50.0,4.0133928e-5
l4.827996e-5,50.0
l-50.0,4.0133928e-5
l-50.0,4.0133928e-5
l-3.7948357e-5,-50.0
l50.0,-3.5762787e-5
l-3.7948357e-5,-50.0
l-50.0,4.0133928e-5
l-3.7948357e-5,-50.0
l50.0,-3.5762787e-5
l50.0,-3.5762787e-5
l3.3577217e-5,50.0
l50.0,-3.5762787e-5
l-3.7948357e-5,-50.0
l50.0,-3.5762787e-5
l3.3577217e-5,50.0
l50.0,-3.5762787e-5
l-3.7948357e-5,-50.0
l50.0,-3.5762787e-5
l50.0,-3.5762787e-5
l3.3577217e-5,50.0
l-50.0,3.1391646e-5
l3.3577217e-5,50.0
l50.0,-3.5762787e-5
l3.3577217e-5,50.0
l-50.0,3.1391646e-5
l-50.0,3.1391646e-5
l-2.3245615e-5,-50.0
l-50.0,3.1391646e-5
l3.3577217e-5,50.0
l3.3577217e-5,50.0
l50.0,-3.5762787e-5
l3.3577217e-5,50.0
l-50.0,3.1391646e-5
l3.3577217e-5,50.0
l3.3577217e-5,50.0
l50.0,-3.5762787e-5
l-3.7948357e-5,-50.0
l50.0,-3.5762787e-5
l3.3577217e-5,50.0
l50.0,-3.5762787e-5
l-3.7948357e-5,-50.0
l-3.7948357e-5,-50.0
l-50.0,4.0133928e-5
l-3.7948357e-5,-50.0
l50.0,-3.5762787e-5
l50.0,-3.5762787e-5
l50.0,-3.5762787e-5
l3.3577217e-5,50.0
l-50.0,3.1391646e-5
l3.3577217e-5,50.0
l3.3577217e-5,50.0
l50.0,-3.5762787e-5
l-3.7948357e-5,-50.0
l50.0,-3.5762787e-5
l3.3577217e-5,50.0
l50.0,-3.5762787e-5
l-3.7948357e-5,-50.0
l-3.7948357e-5,-50.0
l-50.0,4.0133928e-5
l-3.7948357e-5,-50.0
l50.0,-3.5762787e-5
l-3.7948357e-5,-50.0
l-3.7948357e-5,-50.0
l-50.0,4.0133928e-5
l4.827996e-5,50.0
l-50.0,4.0133928e-5
l-50.0,4.0133928e-5
l-3.7948357e-5,-50.0
l50.0,-3.5762787e-5
l-3.7948357e-5,-50.0
l-50.0,4.0133928e-5
l-3.7948357e-5,-50.0
l50.0,-3.5762787e-5
l50.0,-3.5762787e-5
l3.3577217e-5,50.0
l50.0,-3.5762787e-5
l-3.7948357e-5,-50.0
l50.0,-3.5762787e-5
l50.0,-3.5762787e-5
l3.3577217e-5,50.0
l-50.0,3.1391646e-5
l3.3577217e-5,50.0
l3.3577217e-5,50.0
l50.0,-3.5762787e-5
l-3.7948357e-5,-50.0
l50.0,-3.5762787e-5
l3.3577217e-5,50.0
l50.0,-3.5762787e-5
l-3.7948357e-5,-50.0
l-3.7948357e-5,-50.0
l-50.0,4.0133928e-5
l-3.7948357e-5,-50.0
l50.0,-3.5762787e-5
l50.0,-3.5762787e-5
l3.3577217e-5,50.0
l50.0,-3.5762787e-5
l-3.7948357e-5,-50.0
l50.0,-3.5762787e-5
l50.0,-3.5762787e-5
l3.3577217e-5,50.0
l-50.0,3.1391646e-5
l3.3577217e-5,50.0
l50.0,-3.5762787e-5
l3.3577217e-5,50.0
l-50.0,3.1391646e-5
l-50.0,3.1391646e-5
l-2.3245615e-5,-50.0
l-50.0,3.1391646e-5
l3.3577217e-5,50.0
l3.3577217e-5,50.0
l3.3577217e-5,50.0
l50.0,-3.5762787e-5
l-3.7948357e-5,-50.0
l50.0,-3.5762787e-5
l50.0,-3.5762787e-5
l3.3577217e-5,50.0
l-50.0,3.1391646e-5
l3.3577217e-5,50.0
l50.0,-3.5762787e-5
l3.3577217e-5,50.0
l-50.0,3.1391646e-5
l-50.0,3.1391646e-5
l-2.3245615e-5,-50.0
l-50.0,3.1391646e-5
l3.3577217e-5,50.0
l-50.0,3.1391646e-5
l-50.0,3.1391646e-5
l-2.3245615e-5,-50.0
l50.0,-1.509958e-5
l-2.3245615e-5,-50.0
l-2.3245615e-5,-50.0
l-50.0,3.1391646e-5
l3.3577217e-5,50.0
l-50.0,3.1391646e-5
l-2.3245615e-5,-50.0
l-50.0,3.1391646e-5
l3.3577217e-5,50.0
l3.3577217e-5,50.0
l50.0,-3.5762787e-5
l3.3577217e-5,50.0
l-50.0,3.1391646e-5
l3.3577217e-5,50.0
l50.0,-3.5762787e-5
l3.3577217e-5,50.0
l-50.0,3.1391646e-5
l3.3577217e-5,50.0
l3.3577217e-5,50.0
l50.0,-3.5762787e-5
l-3.7948357e-5,-50.0
l50.0,-3.5762787e-5
l3.3577217e-5,50.0
l50.0,-3.5762787e-5
l-3.7948357e-5,-50.0
l-3.7948357e-5,-50.0
l-50.0,4.0133928e-5
l-3.7948357e-5,-50.0
l50.0,-3.5762787e-5
l50.0,-3.5762787e-5
l3.3577217e-5,50.0
l50.0,-3.5762787e-5
l-3.7948357e-5,-50.0
l50.0,-3.5762787e-5
l50.0,-3.5762787e-5
l3.3577217e-5,50.0
l-50.0,3.1391646e-5
l3.3577217e-5,50.0
l50.0,-3.5762787e-5
l3.3577217e-5,50.0
l-50.0,3.1391646e-5
l-50.0,3.1391646e-5
l-2.3245615e-5,-50.0
l-50.0,3.1391646e-5
l3.3577217e-5,50.0
l3.3577217e-5,50.0
l3.3577217e-5,50.0
l50.0,-3.5762787e-5
l-3.7948357e-5,-50.0
l50.0,-3.5762787e-5
l50.0,-3.5762787e-5
l3.3577217e-5,50.0
l-50.0,3.1391646e-5
l3.3577217e-5,50.0
l50.0,-3.5762787e-5
l3.3577217e-5,50.0
l-50.0,3.1391646e-5
l-50.0,3.1391646e-5
l-2.3245615e-5,-50.0
l-50.0,3.1391646e-5
l3.3577217e-5,50.0
l-50.0,3.1391646e-5
l-50.0,3.1391646e-5
l-2.3245615e-5,-50.0
l50.0,-1.509958e-5
l-2.3245615e-5,-50.0
l-2.3245615e-5,-50.0
l-50.0,3.1391646e-5
l3.3577217e-5,50.0
l-50.0,3.1391646e-5
l-2.3245615e-5,-50.0
l-50.0,3.1391646e-5
l3.3577217e-5,50.0
l3.3577217e-5,50.0
l50.0,-3.5762787e-5
l3.3577217e-5,50.0
l-50.0,3.1391646e-5
l-50.0,3.1391646e-5
l-2.3245615e-5,-50.0
l-50.0,3.1391646e-5
l3.3577217e-5,50.0
l-50.0,3.1391646e-5
l-50.0,3.1391646e-5
l-2.3245615e-5,-50.0
l50.0,-1.509958e-5
l-2.3245615e-5,-50.0
l-50.0,3.1391646e-5
l-2.3245615e-5,-50.0
l50.0,-1.509958e-5
l50.0,-1.509958e-5
l6.953546e-6,50.0
l50.0,-1.509958e-5
l-2.3245615e-5,-50.0
l-2.3245615e-5,-50.0
l-50.0,3.1391646e-5
l-2.3245615e-5,-50.0
l50.0,-1.509958e-5
l-2.3245615e-5,-50.0
l-2.3245615e-5,-50.0
l-50.0,3.1391646e-5
l3.3577217e-5,50.0
l-50.0,3.1391646e-5
l-2.3245615e-5,-50.0
l-50.0,3.1391646e-5
l3.3577217e-5,50.0
l3.3577217e-5,50.0
l50.0,-3.5762787e-5
l3.3577217e-5,50.0
l-50.0,3.1391646e-5
l-50.0,3.1391646e-5
l-50.0,3.1391646e-5
l-2.3245615e-5,-50.0
l50.0,-1.509958e-5
l-2.3245615e-5,-50.0
l-2.3245615e-5,-50.0
l-50.0,3.1391646e-5
l3.3577217e-5,50.0
l-50.0,3.1391646e-5
l-2.3245615e-5,-50.0
l-50.0,3.1391646e-5
l3.3577217e-5,50.0
l3.3577217e-5,50.0
l50.0,-3.5762787e-5
l3.3577217e-5,50.0
l-50.0,3.1391646e-5
l3.3577217e-5,50.0
l3.3577217e-5,50.0
l50.0,-3.5762787e-5
l-3.7948357e-5,-50.0
l50.0,-3.5762787e-5
l50.0,-3.5762787e-5
l3.3577217e-5,50.0
l-50.0,3.1391646e-5
l3.3577217e-5,50.0
l50.0,-3.5762787e-5
l3.3577217e-5,50.0
l-50.0,3.1391646e-5
l-50.0,3.1391646e-5
l-2.3245615e-5,-50.0
l-50.0,3.1391646e-5
l3.3577217e-5,50.0
l3.3577217e-5,50.0
l50.0,-3.5762787e-5
l3.3577217e-5,50.0
l-50.0,3.1391646e-5
l3.3577217e-5,50.0
l3.3577217e-5,50.0
l50.0,-3.5762787e-5
l-3.7948357e-5,-50.0
l50.0,-3.5762787e-5
l3.3577217e-5,50.0
l50.0,-3.5762787e-5
l-3.7948357e-5,-50.0
l-3.7948357e-5,-50.0
l-50.0,4.0133928e-5
l-3.7948357e-5,-50.0
l50.0,-3.5762787e-5
l50.0,-3.5762787e-5
l3.3577217e-5,50.0
l50.0,-3.5762787e-5
l-3.7948357e-5,-50.0
l50.0,-3.5762787e-5
l50.0,-3.5762787e-5
l3.3577217e-5,50.0
l-50.0,3.1391646e-5
l3.3577217e-5,50.0
l50.0,-3.5762787e-5
l3.3577217e-5,50.0
l-50.0,3.1391646e-5
l-50.0,3.1391646e-5
l-2.3245615e-5,-50.0
l-50.0,3.1391646e-5
l3.3577217e-5,50.0
l3.3577217e-5,50.0
l3.3577217e-5,50.0
l50.0,-3.5762787e-5
l-3.7948357e-5,-50.0
l50.0,-3.5762787e-5
l50.0,-3.5762787e-5
l3.3577217e-5,50.0
l-50.0,3.1391646e-5
l3.3577217e-5,50.0
l50.0,-3.5762787e-5
l3.3577217e-5,50.0
l-50.0,3.1391646e-5
l-50.0,3.1391646e-5
l-2.3245615e-5,-50.0
l-50.0,3.1391646e-5
l3.3577217e-5,50.0
l-50.0,3.1391646e-5
l-50.0,3.1391646e-5
l-2.3245615e-5,-50.0
l50.0,-1.509958e-5
l-2.3245615e-5,-50.0
l-2.3245615e-5,-50.0
l-50.0,3.1391646e-5
l3.3577217e-5,50.0
l-50.0,3.1391646e-5
l-2.3245615e-5,-50.0
l-50.0,3.1391646e-5
l3.3577217e-5,50.0
l3.3577217e-5,50.0
l50.0,-3.5762787e-5
l3.3577217e-5,50.0
l-50.0,3.1391646e-5
l3.3577217e-5,50.0
l3.3577217e-5,50.0
l50.0,-3.5762787e-5
l-3.7948357e-5,-50.0
l50.0,-3.5762787e-5
l50.0,-3.5762787e-5
l3.3577217e-5,50.0
l-50.0,3.1391646e-5
l3.3577217e-5,50.0
l50.0,-3.5762787e-5
l3.3577217e-5,50.0
l-50.0,3.1391646e-5
l-50.0,3.1391646e-5
l-2.3245615e-5,-50.0
l-50.0,3.1391646e-5
l3.3577217e-5,50.0
l3.3577217e-5,50.0
l50.0,-3.5762787e-5
l3.3577217e-5,50.0
l-50.0,3.1391646e-5
l3.3577217e-5,50.0
l3.3577217e-5,50.0
l50.0,-3.5762787e-5
l-3.7948357e-5,-50.0
l50.0,-3.5762787e-5
l3.3577217e-5,50.0
l50.0,-3.5762787e-5
l-3.7948357e-5,-50.0
l-3.7948357e-5,-50.0
l-50.0,4.0133928e-5
l-3.7948357e-5,-50.0
l50.0,-3.5762787e-5
l50.0,-3.5762787e-5
l50.0,-3.5762787e-5
l3.3577217e-5,50.0
l-50.0,3.1391646e-5
l3.3577217e-5,50.0
l3.3577217e-5,50.0
l50.0,-3.5762787e-5
l-3.7948357e-5,-50.0
l50.0,-3.5762787e-5
l3.3577217e-5,50.0
l50.0,-3.5762787e-5
l-3.7948357e-5,-50.0
l-3.7948357e-5,-50.0
l-50.0,4.0133928e-5
l-3.7948357e-5,-50.0
l50.0,-3.5762787e-5
l-3.7948357e-5,-50.0
l-3.7948357e-5,-50.0
l-50.0,4.0133928e-5
l4.827996e-5,50.0
l-50.0,4.0133928e-5
l-50.0,4.0133928e-5
l-3.7948357e-5,-50.0
l50.0,-3.5762787e-5
l-3.7948357e-5,-50.0
l-50.0,4.0133928e-5
l-3.7948357e-5,-50.0
l50.0,-3.5762787e-5
l50.0,-3.5762787e-5
l3.3577217e-5,50.0
l50.0,-3.5762787e-5
l-3.7948357e-5,-50.0
l50.0,-3.5762787e-5
l3.3577217e-5,50.0
l50.0,-3.5762787e-5
l-3.7948357e-5,-50.0
l50.0,-3.5762787e-5
l50.0,-3.5762787e-5
l3.3577217e-5,50.0
l-50.0,3.1391646e-5
l3.3577217e-5,50.0
l50.0,-3.5762787e-5
l3.3577217e-5,50.0
l-50.0,3.1391646e-5
l-50.0,3.1391646e-5
l-2.3245615e-5,-50.0
l-50.0,3.1391646e-5
l3.3577217e-5,50.0
l3.3577217e-5,50.0
l50.0,-3.5762787e-5
l3.3577217e-5,50.0
l-50.0,3.1391646e-5
l3.3577217e-5,50.0
l3.3577217e-5,50.0
l50.0,-3.5762787e-5
l-3.7948357e-5,-50.0
l50.0,-3.5762787e-5
l3.3577217e-5,50.0
l50.0,-3.5762787e-5
l-3.7948357e-5,-50.0
l-3.7948357e-5,-50.0
l-50.0,4.0133928e-5
l-3.7948357e-5,-50.0
l50.0,-3.5762787e-5
l50.0,-3.5762787e-5
l50.0,-3.5762787e-5
l3.3577217e-5,50.0
l-50.0,3.1391646e-5
l3.3577217e-5,50.0
l3.3577217e-5,50.0
l50.0,-3.5762787e-5
l-3.7948357e-5,-50.0
l50.0,-3.5762787e-5
l3.3577217e-5,50.0
l50.0,-3.5762787e-5
l-3.7948357e-5,-50.0
l-3.7948357e-5,-50.0
l-50.0,4.0133928e-5
l-3.7948357e-5,-50.0
l50.0,-3.5762787e-5
l-3.7948357e-5,-50.0
l-3.7948357e-5,-50.0
l-50.0,4.0133928e-5
l4.827996e-5,50.0
l-50.0,4.0133928e-5
l-50.0,4.0133928e-5
l-3.7948357e-5,-50.0
l50.0,-3.5762787e-5
l-3.7948357e-5,-50.0
l-50.0,4.0133928e-5
l-3.7948357e-5,-50.0
l50.0,-3.5762787e-5
l50.0,-3.5762787e-5
l3.3577217e-5,50.0
l50.0,-3.5762787e-5
l-3.7948357e-5,-50.0
l-3.7948357e-5,-50.0
l-50.0,4.0133928e-5
l-3.7948357e-5,-50.0
l50.0,-3.5762787e-5
l-3.7948357e-5,-50.0
l-3.7948357e-5,-50.0
l-50.0,4.0133928e-5
l4.827996e-5,50.0
l-50.0,4.0133928e-5
l-3.7948357e-5,-50.0
l-50.0,4.0133928e-5
l4.827996e-5,50.0
l4.827996e-5,50.0
l50.0,-5.6425994e-5
l4.827996e-5,50.0
l-50.0,4.0133928e-5
l-50.0,4.0133928e-5
l-3.7948357e-5,-50.0
l-50.0,4.0133928e-5
l4.827996e-5,50.0
l-50.0,4.0133928e-5
l-50.0,4.0133928e-5
l-3.7948357e-5,-50.0
l50.0,-3.5762787e-5
l-3.7948357e-5,-50.0
l-50.0,4.0133928e-5
l-3.7948357e-5,-50.0
l50.0,-3.5762787e-5
l50.0,-3.5762787e-5
l3.3577217e-5,50.0
l50.0,-3.5762787e-5
l-3.7948357e-5,-50.0
l-3.7948357e-5,-50.0
l-3.7948357e-5,-50.0
l-50.0,4.0133928e-5
l4.827996e-5,50.0
l-50.0,4.0133928e-5
l-50.0,4.0133928e-5
l-3.7948357e-5,-50.0
l50.0,-3.5762787e-5
l-3.7948357e-5,-50.0
l-50.0,4.0133928e-5
l-3.7948357e-5,-50.0
l50.0,-3.5762787e-5
l50.0,-3.5762787e-5
l3.3577217e-5,50.0
l50.0,-3.5762787e-5
l-3.7948357e-5,-50.0
l50.0,-3.5762787e-5
l50.0,-3.5762787e-5
l3.3577217e-5,50.0
l-50.0,3.1391646e-5
l3.3577217e-5,50.0
l3.3577217e-5,50.0
l50.0,-3.5762787e-5
l-3.7948357e-5,-50.0
l50.0,-3.5762787e-5
l3.3577217e-5,50.0
l50.0,-3.5762787e-5
l-3.7948357e-5,-50.0
l-3.7948357e-5,-50.0
l-50.0,4.0133928e-5
l-3.7948357e-5,-50.0
l50.0,-3.5762787e-5
l50.0,-3.5762787e-5
l50.0,-3.5762787e-5
l3.3577217e-5,50.0
l-50.0,3.1391646e-5
l3.3577217e-5,50.0
l3.3577217e-5,50.0
l50.0,-3.5762787e-5
l-3.7948357e-5,-50.0
l50.0,-3.5762787e-5
l3.3577217e-5,50.0
l50.0,-3.5762787e-5
l-3.7948357e-5,-50.0
l-3.7948357e-5,-50.0
l-50.0,4.0133928e-5
l-3.7948357e-5,-50.0
l50.0,-3.5762787e-5
l50.0,-3.5762787e-5
l3.3577217e-5,50.0
l50.0,-3.5762787e-5
l-3.7948357e-5,-50.0
l50.0,-3.5762787e-5
l50.0,-3.5762787e-5
l3.3577217e-5,50.0
l-50.0,3.1391646e-5
l3.3577217e-5,50.0
l50.0,-3.5762787e-5
l3.3577217e-5,50.0
l-50.0,3.1391646e-5
l-50.0,3.1391646e-5
l-2.3245615e-5,-50.0
l-50.0,3.1391646e-5
l3.3577217e-5,50.0
l3.3577217e-5,50.0
l3.3577217e-5,50.0
l50.0,-3.5762787e-5
l-3.7948357e-5,-50.0
l50.0,-3.5762787e-5
l50.0,-3.5762787e-5
l3.3577217e-5,50.0
l-50.0,3.1391646e-5
l3.3577217e-5,50.0
l50.0,-3.5762787e-5
l3.3577217e-5,50.0
l-50.0,3.1391646e-5
l-50.0,3.1391646e-5
l-2.3245615e-5,-50.0
l-50.0,3.1391646e-5
l3.3577217e-5,50.0
l-50.0,3.1391646e-5
l-50.0,3.1391646e-5
l-2.3245615e-5,-50.0
l50.0,-1.509958e-5
l-2.3245615e-5,-50.0
l-2.3245615e-5,-50.0
l-50.0,3.1391646e-5
l3.3577217e-5,50.0
l-50.0,3.1391646e-5
l-2.3245615e-5,-50.0
l-50.0,3.1391646e-5
l3.3577217e-5,50.0
l3.3577217e-5,50.0
l50.0,-3.5762787e-5
l3.3577217e-5,50.0
l-50.0,3.1391646e-5
l3.3577217e-5,50.0
l3.3577217e-5,50.0
l50.0,-3.5762787e-5
l-3.7948357e-5,-50.0
l50.0,-3.5762787e-5
l50.0,-3.5762787e-5
l3.3577217e-5,50.0
l-50.0,3.1391646e-5
l3.3577217e-5,50.0
l50.0,-3.5762787e-5
l3.3577217e-5,50.0
l-50.0,3.1391646e-5
l-50.0,3.1391646e-5
l-2.3245615e-5,-50.0
l-50.0,3.1391646e-5
l3.3577217e-5,50.0
l3.3577217e-5,50.0
l50.0,-3.5762787e-5
l3.3577217e-5,50.0
l-50.0,3.1391646e-5
l3.3577217e-5,50.0
l3.3577217e-5,50.0
l50.0,-3.5762787e-5
l-3.7948357e-5,-50.0
l50.0,-3.5762787e-5
l3.3577217e-5,50.0
l50.0,-3.5762787e-5
l-3.7948357e-5,-50.0
l-3.7948357e-5,-50.0
l-50.0,4.0133928e-5
l-3.7948357e-5,-50.0
l50.0,-3.5762787e-5
l50.0,-3.5762787e-5
l50.0,-3.5762787e-5
l3.3577217e-5,50.0
l-50.0,3.1391646e-5
l3.3577217e-5,50.0
l3.3577217e-5,50.0
l50.0,-3.5762787e-5
l-3.7948357e-5,-50.0
l50.0,-3.5762787e-5
l3.3577217e-5,50.0
l50.0,-3.5762787e-5
l-3.7948357e-5,-50.0
l-3.7948357e-5,-50.0
l-50.0,4.0133928e-5
l-3.7948357e-5,-50.0
l50.0,-3.5762787e-5
l-3.7948357e-5,-50.0
l-3.7948357e-5,-50.0
l-50.0,4.0133928e-5
l4.827996e-5,50.0
l-50.0,4.0133928e-5
l-50.0,4.0133928e-5
l-3.7948357e-5,-50.0
l50.0,-3.5762787e-5
l-3.7948357e-5,-50.0
l-50.0,4.0133928e-5
l-3.7948357e-5,-50.0
l50.0,-3.5762787e-5
l50.0,-3.5762787e-5
l3.3577217e-5,50.0
l50.0,-3.5762787e-5
l-3.7948357e-5,-50.0
l50.0,-3.5762787e-5
l3.3577217e-5,50.0
l50.0,-3.5762787e-5
l-3.7948357e-5,-50.0
l50.0,-3.5762787e-5
l50.0,-3.5762787e-5
l3.3577217e-5,50.0
l-50.0,3.1391646e-5
l3.3577217e-5,50.0
l50.0,-3.5762787e-5
l3.3577217e-5,50.0
l-50.0,3.1391646e-5
l-50.0,3.1391646e-5
l-2.3245615e-5,-50.0
l-50.0,3.1391646e-5
l3.3577217e-5,50.0
l3.3577217e-5,50.0
l50.0,-3.5762787e-5
l3.3577217e-5,50.0
l-50.0,3.1391646e-5
l3.3577217e-5,50.0
l3.3577217e-5,50.0
l50.0,-3.5762787e-5
l-3.7948357e-5,-50.0
l50.0,-3.5762787e-5
l3.3577217e-5,50.0
l50.0,-3.5762787e-5
l-3.7948357e-5,-50.0
l-3.7948357e-5,-50.0
l-50.0,4.0133928e-5
l-3.7948357e-5,-50.0
l50.0,-3.5762787e-5
l50.0,-3.5762787e-5
l50.0,-3.5762787e-5
l3.3577217e-5,50.0
l-50.0,3.1391646e-5
l3.3577217e-5,50.0
l3.3577217e-5,50.0
l50.0,-3.5762787e-5
l-3.7948357e-5,-50.0
l50.0,-3.5762787e-5
l3.3577217e-5,50.0
l50.0,-3.5762787e-5
l-3.7948357e-5,-50.0
l-3.7948357e-5,-50.0
l-50.0,4.0133928e-5
l-3.7948357e-5,-50.0
l50.0,-3.5762787e-5
l-3.7948357e-5,-50.0
l-3.7948357e-5,-50.0
l-50.0,4.0133928e-5
l4.827996e-5,50.0
l-50.0,4.0133928e-5
l-50.0,4.0133928e-5
l-3.7948357e-5,-50.0
l50.0,-3.5762787e-5
l-3.7948357e-5,-50.0
l-50.0,4.0133928e-5
l-3.7948357e-5,-50.0
l50.0,-3.5762787e-5
l50.0,-3.5762787e-5
l3.3577217e-5,50.0
l50.0,-3.5762787e-5
l-3.7948357e-5,-50.0
l-3.7948357e-5,-50.0
l-50.0,4.0133928e-5
l-3.7948357e-5,-50.0
l50.0,-3.5762787e-5
l-3.7948357e-5,-50.0
l-3.7948357e-5,-50.0
l-50.0,4.0133928e-5
l4.827996e-5,50.0
l-50.0,4.0133928e-5
l-3.7948357e-5,-50.0
l-50.0,4.0133928e-5
l4.827996e-5,50.0
l4.827996e-5,50.0
l50.0,-5.6425994e-5
l4.827996e-5,50.0
l-50.0,4.0133928e-5
l-50.0,4.0133928e-5
l-3.7948357e-5,-50.0
l-50.0,4.0133928e-5
l4.827996e-5,50.0
l-50.0,4.0133928e-5
l-50.0,4.0133928e-5
l-3.7948357e-5,-50.0
l50.0,-3.5762787e-5
l-3.7948357e-5,-50.0
l-50.0,4.0133928e-5
l-3.7948357e-5,-50.0
l50.0,-3.5762787e-5
l50.0,-3.5762787e-5
l3.3577217e-5,50.0
l50.0,-3.5762787e-5
l-3.7948357e-5,-50.0
l-3.7948357e-5,-50.0
l-3.7948357e-5,-50.0
l-50.0,4.0133928e-5
l4.827996e-5,50.0
l-50.0,4.0133928e-5
l-50.0,4.0133928e-5
l-3.7948357e-5,-50.0
l50.0,-3.5762787e-5
l-3.7948357e-5,-50.0
l-50.0,4.0133928e-5
l-3.7948357e-5,-50.0
l50.0,-3.5762787e-5
l50.0,-3.5762787e-5
l3.3577217e-5,50.0
l50.0,-3.5762787e-5
l-3.7948357e-5,-50.0
l50.0,-3.5762787e-5
l50.0,-3.5762787e-5
l3.3577217e-5,50.0
l-50.0,3.1391646e-5
l3.3577217e-5,50.0
l3.3577217e-5,50.0
l50.0,-3.5762787e-5
l-3.7948357e-5,-50.0
l50.0,-3.5762787e-5
l3.3577217e-5,50.0
l50.0,-3.5762787e-5
l-3.7948357e-5,-50.0
l-3.7948357e-5,-50.0
l-50.0,4.0133928e-5
l-3.7948357e-5,-50.0
l50.0,-3.5762787e-5
l-3.7948357e-5,-50.0
l-3.7948357e-5,-50.0
l-50.0,4.0133928e-5
l4.827996e-5,50.0
l-50.0,4.0133928e-5
l-50.0,4.0133928e-5
l-3.7948357e-5,-50.0
l50.0,-3.5762787e-5
l-3.7948357e-5,-50.0
l-50.0,4.0133928e-5
l-3.7948357e-5,-50.0
l50.0,-3.5762787e-5
l50.0,-3.5762787e-5
l3.3577217e-5,50.0
l50.0,-3.5762787e-5
l-3.7948357e-5,-50.0
l-3.7948357e-5,-50.0
l-50.0,4.0133928e-5
l-3.7948357e-5,-50.0
l50.0,-3.5762787e-5
l-3.7948357e-5,-50.0
l-3.7948357e-5,-50.0
l-50.0,4.0133928e-5
l4.827996e-5,50.0
l-50.0,4.0133928e-5
l-3.7948357e-5,-50.0
l-50.0,4.0133928e-5
l4.827996e-5,50.0
l4.827996e-5,50.0
l50.0,-5.6425994e-5
l4.827996e-5,50.0
l-50.0,4.0133928e-5
l-50.0,4.0133928e-5
l-50.0,4.0133928e-5
l-3.7948357e-5,-50.0
l50.0,-3.5762787e-5
l-3.7948357e-5,-50.0
l-3.7948357e-5,-50.0
l-50.0,4.0133928e-5
l4.827996e-5,50.0
l-50.0,4.0133928e-5
l-3.7948357e-5,-50.0
l-50.0,4.0133928e-5
l4.827996e-5,50.0
l4.827996e-5,50.0
l50.0,-5.6425994e-5
l4.827996e-5,50.0
l-50.0,4.0133928e-5
l4.827996e-5,50.0
l4.827996e-5,50.0
l50.0,-5.6425994e-5
l-6.457203e-5,-50.0
l50.0,-5.6425994e-5
l50.0,-5.6425994e-5
l4.827996e-5,50.0
l-50.0,4.0133928e-5
l4.827996e-5,50.0
l50.0,-5.6425994e-5
l4.827996e-5,50.0
l-50.0,4.0133928e-5
l-50.0,4.0133928e-5
l-3.7948357e-5,-50.0
l-50.0,4.0133928e-5
l4.827996e-5,50.0
l-50.0,4.0133928e-5
l-50.0,4.0133928e-5
l-3.7948357e-5,-50.0
l50.0,-3.5762787e-5
l-3.7948357e-5,-50.0
l-3.7948357e-5,-50.0
l-50.0,4.0133928e-5
l4.827996e-5,50.0
l-50.0,4.0133928e-5
l-3.7948357e-5,-50.0
l-50.0,4.0133928e-5
l4.827996e-5,50.0
l4.827996e-5,50.0
l50.0,-5.6425994e-5
l4.827996e-5,50.0
l-50.0,4.0133928e-5
l-50.0,4.0133928e-5
l-3.7948357e-5,-50.0
l-50.0,4.0133928e-5
l4.827996e-5,50.0
l-50.0,4.0133928e-5
l-50.0,4.0133928e-5
l-3.7948357e-5,-50.0
l50.0,-3.5762787e-5
l-3.7948357e-5,-50.0
l-50.0,4.0133928e-5
l-3.7948357e-5,-50.0
l50.0,-3.5762787e-5
l50.0,-3.5762787e-5
l3.3577217e-5,50.0
l50.0,-3.5762787e-5
l-3.7948357e-5,-50.0
l-3.7948357e-5,-50.0
l-3.7948357e-5,-50.0
l-50.0,4.0133928e-5
l4.827996e-5,50.0
l-50.0,4.0133928e-5
l-50.0,4.0133928e-5
l-3.7948357e-5,-50.0
l50.0,-3.5762787e-5
l-3.7948357e-5,-50.0
l-50.0,4.0133928e-5
l-3.7948357e-5,-50.0
l50.0,-3.5762787e-5
l50.0,-3.5762787e-5
l3.3577217e-5,50.0
l50.0,-3.5762787e-5
l-3.7948357e-5,-50.0
l50.0,-3.5762787e-5
l50.0,-3.5762787e-5
l3.3577217e-5,50.0
l-50.0,3.1391646e-5
l3.3577217e-5,50.0
l3.3577217e-5,50.0
l50.0,-3.5762787e-5
l-3.7948357e-5,-50.0
l50.0,-3.5762787e-5
l3.3577217e-5,50.0
l50.0,-3.5762787e-5
l-3.7948357e-5,-50.0
l-3.7948357e-5,-50.0
l-50.0,4.0133928e-5
l-3.7948357e-5,-50.0
l50.0,-3.5762787e-5
l-3.7948357e-5,-50.0
l-50.0,4.0133928e-5
l-3.7948357e-5,-50.0
l50.0,-3.5762787e-5
l-3.7948357e-5,-50.0
l-3.7948357e-5,-50.0
l-50.0,4.0133928e-5
l4.827996e-5,50.0
l-50.0,4.0133928e-5
l-3.7948357e-5,-50.0
l-50.0,4.0133928e-5
l4.827996e-5,50.0
l4.827996e-5,50.0
l50.0,-5.6425994e-5
l4.827996e-5,50.0
l-50.0,4.0133928e-5
l-50.0,4.0133928e-5
l-3.7948357e-5,-50.0
l-50.0,4.0133928e-5
l4.827996e-5,50.0
l-50.0,4.0133928e-5
l-50.0,4.0133928e-5
l-3.7948357e-5,-50.0
l50.0,-3.5762787e-5
l-3.7948357e-5,-50.0
l-50.0,4.0133928e-5
l-3.7948357e-5,-50.0
l50.0,-3.5762787e-5
l50.0,-3.5762787e-5
l3.3577217e-5,50.0
l50.0,-3.5762787e-5
l-3.7948357e-5,-50.0
l-3.7948357e-5,-50.0
l-3.7948357e-5,-50.0
l-50.0,4.0133928e-5
l4.827996e-5,50.0
l-50.0,4.0133928e-5
l-50.0,4.0133928e-5
l-3.7948357e-5,-50.0
l50.0,-3.5762787e-5
l-3.7948357e-5,-50.0
l-50.0,4.0133928e-5
l-3.7948357e-5,-50.0
l50.0,-3.5762787e-5
l50.0,-3.5762787e-5
l3.3577217e-5,50.0
l50.0,-3.5762787e-5
l-3.7948357e-5,-50.0
l50.0,-3.5762787e-5
l50.0,-3.5762787e-5
l3.3577217e-5,50.0
l-50.0,3.1391646e-5
l3.3577217e-5,50.0
l3.3577217e-5,50.0
l50.0,-3.5762787e-5
l-3.7948357e-5,-50.0
l50.0,-3.5762787e-5
l3.3577217e-5,50.0
l50.0,-3.5762787e-5
l-3.7948357e-5,-50.0
l-3.7948357e-5,-50.0
l-50.0,4.0133928e-5
l-3.7948357e-5,-50.0
l50.0,-3.5762787e-5
l50.0,-3.5762787e-5
l3.3577217e-5,50.0
l50.0,-3.5762787e-5
l-3.7948357e-5,-50.0
l50.0,-3.5762787e-5
l50.0,-3.5762787e-5
l3.3577217e-5,50.0
l-50.0,3.1391646e-5
l3.3577217e-5,50.0
l50.0,-3.5762787e-5
l3.3577217e-5,50.0
l-50.0,3.1391646e-5
l-50.0,3.1391646e-5
l-2.3245615e-5,-50.0
l-50.0,3.1391646e-5
l3.3577217e-5,50.0
l3.3577217e-5,50.0
l50.0,-3.5762787e-5
l3.3577217e-5,50.0
l-50.0,3.1391646e-5
l3.3577217e-5,50.0
l3.3577217e-5,50.0
l50.0,-3.5762787e-5
l-3.7948357e-5,-50.0
l50.0,-3.5762787e-5
l3.3577217e-5,50.0
l50.0,-3.5762787e-5
l-3.7948357e-5,-50.0
l-3.7948357e-5,-50.0
l-50.0,4.0133928e-5
l-3.7948357e-5,-50.0
l50.0,-3.5762787e-5
l50.0,-3.5762787e-5
l50.0,-3.5762787e-5
l3.3577217e-5,50.0
l-50.0,3.1391646e-5
l3.3577217e-5,50.0
l3.3577217e-5,50.0
l50.0,-3.5762787e-5
l-3.7948357e-5,-50.0
l50.0,-3.5762787e-5
l3.3577217e-5,50.0
l50.0,-3.5762787e-5
l-3.7948357e-5,-50.0
l-3.7948357e-5,-50.0
l-50.0,4.0133928e-5
l-3.7948357e-5,-50.0
l50.0,-3.5762787e-5
l-3.7948357e-5,-50.0
l-3.7948357e-5,-50.0
l-50.0,4.0133928e-5
l4.827996e-5,50.0
l-50.0,4.0133928e-5
l-50.0,4.0133928e-5
l-3.7948357e-5,-50.0
l50.0,-3.5762787e-5
l-3.7948357e-5,-50.0
l-50.0,4.0133928e-5
l-3.7948357e-5,-50.0
l50.0,-3.5762787e-5
l50.0,-3.5762787e-5
l3.3577217e-5,50.0
l50.0,-3.5762787e-5
l-3.7948357e-5,-50.0
l-3.7948357e-5,-50.0
l-50.0,4.0133928e-5
l-3.7948357e-5,-50.0
l50.0,-3.5762787e-5
l-3.7948357e-5,-50.0
l-3.7948357e-5,-50.0
l-50.0,4.0133928e-5
l4.827996e-5,50.0
l-50.0,4.0133928e-5
l-3.7948357e-5,-50.0
l-50.0,4.0133928e-5
l4.827996e-5,50.0
l4.827996e-5,50.0
l50.0,-5.6425994e-5
l4.827996e-5,50.0
l-50.0,4.0133928e-5
l-50.0,4.0133928e-5
l-3.7948357e-5,-50.0
l-50.0,4.0133928e-5
l4.827996e-5,50.0
l-50.0,4.0133928e-5
l-50.0,4.0133928e-5
l-3.7948357e-5,-50.0
l50.0,-3.5762787e-5
l-3.7948357e-5,-50.0
l-50.0,4.0133928e-5
l-3.7948357e-5,-50.0
l50.0,-3.5762787e-5
l50.0,-3.5762787e-5
l3.3577217e-5,50.0
l50.0,-3.5762787e-5
l-3.7948357e-5,-50.0
l-3.7948357e-5,-50.0
l-3.7948357e-5,-50.0
l-50.0,4.0133928e-5
l4.827996e-5,50.0
l-50.0,4.0133928e-5
l-50.0,4.0133928e-5
l-3.7948357e-5,-50.0
l50.0,-3.5762787e-5
l-3.7948357e-5,-50.0
l-50.0,4.0133928e-5
l-3.7948357e-5,-50.0
l50.0,-3.5762787e-5
l50.0,-3.5762787e-5
l3.3577217e-5,50.0
l50.0,-3.5762787e-5
l-3.7948357e-5,-50.0
l50.0,-3.5762787e-5
l50.0,-3.5762787e-5
l3.3577217e-5,50.0
l-50.0,3.1391646e-5
l3.3577217e-5,50.0
l3.3577217e-5,50.0
l50.0,-3.5762787e-5
l-3.7948357e-5,-50.0
l50.0,-3.5762787e-5
l3.3577217e-5,50.0
l50.0,-3.5762787e-5
l-3.7948357e-5,-50.0
l-3.7948357e-5,-50.0
l-50.0,4.0133928e-5
l-3.7948357e-5,-50.0
l50.0,-3.5762787e-5
l-3.7948357e-5,-50.0
l-3.7948357e-5,-50.0
l-50.0,4.0133928e-5
l4.827996e-5,50.0
l-50.0,4.0133928e-5
l-50.0,4.0133928e-5
l-3.7948357e-5,-50.0
l50.0,-3.5762787e-5
l-3.7948357e-5,-50.0
l-50.0,4.0133928e-5
l-3.7948357e-5,-50.0
l50.0,-3.5762787e-5
l50.0,-3.5762787e-5
l3.3577217e-5,50.0
l50.0,-3.5762787e-5
l-3.7948357e-5,-50.0
l-3.7948357e-5,-50.0
l-50.0,4.0133928e-5
l-3.7948357e-5,-50.0
l50.0,-3.5762787e-5
l-3.7948357e-5,-50.0
l-3.7948357e-5,-50.0
l-50.0,4.0133928e-5
l4.827996e-5,50.0
l-50.0,4.0133928e-5
l-3.7948357e-5,-50.0
l-50.0,4.0133928e-5
l4.827996e-5,50.0
l4.827996e-5,50.0
l50.0,-5.6425994e-5
l4.827996e-5,50.0
l-50.0,4.0133928e-5
l-50.0,4.0133928e-5
l-50.0,4.0133928e-5
l-3.7948357e-5,-50.0
l50.0,-3.5762787e-5
l-3.7948357e-5,-50.0
l-3.7948357e-5,-50.0
l-50.0,4.0133928e-5
l4.827996e-5,50.0
l-50.0,4.0133928e-5
l-3.7948357e-5,-50.0
l-50.0,4.0133928e-5
l4.827996e-5,50.0
l4.827996e-5,50.0
l50.0,-5.6425994e-5
l4.827996e-5,50.0
l-50.0,4.0133928e-5
l4.827996e-5,50.0
l4.827996e-5,50.0
l50.0,-5.6425994e-5
l-6.457203e-5,-50.0
l50.0,-5.6425994e-5
l50.0,-5.6425994e-5
l4.827996e-5,50.0
l-50.0,4.0133928e-5
l4.827996e-5,50.0
l50.0,-5.6425994e-5
l4.827996e-5,50.0
l-50.0,4.0133928e-5
l-50.0,4.0133928e-5
l-3.7948357e-5,-50.0
l-50.0,4.0133928e-5
l4.827996e-5,50.0
l-50.0,4.0133928e-5
l-3.7948357e-5,-50.0
l-50.0,4.0133928e-5
l4.827996e-5,50.0
l-50.0,4.0133928e-5
l-50.0,4.0133928e-5
l-3.7948357e-5,-50.0
l50.0,-3.5762787e-5
l-3.7948357e-5,-50.0
l-50.0,4.0133928e-5
l-3.7948357e-5,-50.0
l50.0,-3.5762787e-5
l50.0,-3.5762787e-5
l3.3577217e-5,50.0
l50.0,-3.5762787e-5
l-3.7948357e-5,-50.0
l-3.7948357e-5,-50.0
l-50.0,4.0133928e-5
l-3.7948357e-5,-50.0
l50.0,-3.5762787e-5
l-3.7948357e-5,-50.0
l-3.7948357e-5,-50.0
l-50.0,4.0133928e-5
l4.827996e-5,50.0
l-50.0,4.0133928e-5
l-3.7948357e-5,-50.0
l-50.0,4.0133928e-5
l4.827996e-5,50.0
l4.827996e-5,50.0
l50.0,-5.6425994e-5
l4.827996e-5,50.0
l-50.0,4.0133928e-5
l-50.0,4.0133928e-5
l-50.0,4.0133928e-5
l-3.7948357e-5,-50.0
l50.0,-3.5762787e-5
l-3.7948357e-5,-50.0
l-3.7948357e-5,-50.0
l-50.0,4.0133928e-5
l4.827996e-5,50.0
l-50.0,4.0133928e-5
l-3.7948357e-5,-50.0
l-50.0,4.0133928e-5
l4.827996e-5,50.0
l4.827996e-5,50.0
l50.0,-5.6425994e-5
l4.827996e-5,50.0
l-50.0,4.0133928e-5
l4.827996e-5,50.0
l4.827996e-5,50.0
l50.0,-5.6425994e-5
l-6.457203e-5,-50.0
l50.0,-5.6425994e-5
l50.0,-5.6425994e-5
l4.827996e-5,50.0
l-50.0,4.0133928e-5
l4.827996e-5,50.0
l50.0,-5.6425994e-5
l4.827996e-5,50.0
l-50.0,4.0133928e-5
l-50.0,4.0133928e-5
l-3.7948357e-5,-50.0
l-50.0,4.0133928e-5
l4.827996e-5,50.0
l4.827996e-5,50.0
l50.0,-5.6425994e-5
l4.827996e-5,50.0
l-50.0,4.0133928e-5
l4.827996e-5,50.0
l4.827996e-5,50.0
l50.0,-5.6425994e-5
l-6.457203e-5,-50.0
l50.0,-5.6425994e-5
l4.827996e-5,50.0
l50.0,-5.6425994e-5
l-6.457203e-5,-50.0
l-6.457203e-5,-50.0
l-50.0,4.8876205e-5
l-4.073017e-5,-50.0
l50.0,-3.2584136e-5
l50.0,-3.2584136e-5
l2.4438103e-5,50.0
l50.0,-3.2584136e-5
l-4.073017e-5,-50.0
l50.0,-3.2584136e-5
l50.0,-3.2584136e-5
l2.4438103e-5,50.0
l-50.0,1.6292068e-5
l2.4438103e-5,50.0
l50.0,-3.2584136e-5
l2.4438103e-5,50.0
l-50.0,1.6292068e-5
l-50.0,1.6292068e-5
l-1.4106498e-5,-50.0
l-50.0,1.6292068e-5
l2.4438103e-5,50.0
l2.4438103e-5,50.0
l2.4438103e-5,50.0
l50.0,-3.2584136e-5
l-4.073017e-5,-50.0
l50.0,-3.2584136e-5
l50.0,-3.2584136e-5
l2.4438103e-5,50.0
l-50.0,1.6292068e-5
l2.4438103e-5,50.0
l50.0,-3.2584136e-5
l2.4438103e-5,50.0
l-50.0,1.6292068e-5
l-50.0,1.6292068e-5
l-1.4106498e-5,-50.0
l-50.0,1.6292068e-5
l2.4438103e-5,50.0
l-50.0,1.6292068e-5
l-50.0,1.6292068e-5
l-1.4106498e-5,-50.0
l50.0,-1.1920929e-5
l-1.4106498e-5,-50.0
l-1.4106498e-5,-50.0
l-50.0,1.6292068e-5
l2.4438103e-5,50.0
l-50.0,1.6292068e-5
l-1.4106498e-5,-50.0
l-50.0,1.6292068e-5
l2.4438103e-5,50.0
l2.4438103e-5,50.0
l50.0,-3.2584136e-5
l2.4438103e-5,50.0
l-50.0,1.6292068e-5
l-50.0,1.6292068e-5
l-1.4106498e-5,-50.0
l-50.0,1.6292068e-5
l2.4438103e-5,50.0
l-50.0,1.6292068e-5
l-50.0,1.6292068e-5
l-1.4106498e-5,-50.0
l50.0,-1.1920929e-5
l-1.4106498e-5,-50.0
l-50.0,1.6292068e-5
l-1.4106498e-5,-50.0
l50.0,-1.1920929e-5
l50.0,-1.1920929e-5
l9.7353595e-6,50.0
l50.0,-1.1920929e-5
l-1.4106498e-5,-50.0
l-1.4106498e-5,-50.0
l-50.0,1.6292068e-5
l-1.4106498e-5,-50.0
l50.0,-1.1920929e-5
l-1.4106498e-5,-50.0
l-1.4106498e-5,-50.0
l-50.0,1.6292068e-5
l2.4438103e-5,50.0
l-50.0,1.6292068e-5
l-1.4106498e-5,-50.0
l-50.0,1.6292068e-5
l2.4438103e-5,50.0
l2.4438103e-5,50.0
l50.0,-3.2584136e-5
l2.4438103e-5,50.0
l-50.0,1.6292068e-5
l-50.0,1.6292068e-5
l-50.0,1.6292068e-5
l-1.4106498e-5,-50.0
l50.0,-1.1920929e-5
l-1.4106498e-5,-50.0
l-1.4106498e-5,-50.0
l-50.0,1.6292068e-5
l2.4438103e-5,50.0
l-50.0,1.6292068e-5
l-1.4106498e-5,-50.0
l-50.0,1.6292068e-5
l2.4438103e-5,50.0
l2.4438103e-5,50.0
l50.0,-3.2584136e-5
l2.4438103e-5,50.0
l-50.0,1.6292068e-5
l2.4438103e-5,50.0
l2.4438103e-5,50.0
l50.0,-3.2584136e-5
l-4.073017e-5,-50.0
l50.0,-3.2584136e-5
l50.0,-3.2584136e-5
l2.4438103e-5,50.0
l-50.0,1.6292068e-5
l2.4438103e-5,50.0
l50.0,-3.2584136e-5
l2.4438103e-5,50.0
l-50.0,1.6292068e-5
l-50.0,1.6292068e-5
l-1.4106498e-5,-50.0
l-50.0,1.6292068e-5
l2.4438103e-5,50.0
l-50.0,1.6292068e-5
l-50.0,1.6292068e-5
l-1.4106498e-5,-50.0
l50.0,-1.1920929e-5
l-1.4106498e-5,-50.0
l-1.4106498e-5,-50.0
l-50.0,1.6292068e-5
l2.4438103e-5,50.0
l-50.0,1.6292068e-5
l-1.4106498e-5,-50.0
l-50.0,1.6292068e-5
l2.4438103e-5,50.0
l2.4438103e-5,50.0
l50.0,-3.2584136e-5
l2.4438103e-5,50.0
l-50.0,1.6292068e-5
l-50.0,1.6292068e-5
l-1.4106498e-5,-50.0
l-50.0,1.6292068e-5
l2.4438103e-5,50.0
l-50.0,1.6292068e-5
l-50.0,1.6292068e-5
l-1.4106498e-5,-50.0
l50.0,-1.1920929e-5
l-1.4106498e-5,-50.0
l-50.0,1.6292068e-5
l-1.4106498e-5,-50.0
l50.0,-1.1920929e-5
l50.0,-1.1920929e-5
l9.7353595e-6,50.0
l50.0,-1.1920929e-5
l-1.4106498e-5,-50.0
l-1.4106498e-5,-50.0
l-1.4106498e-5,-50.0
l-50.0,1.6292068e-5
l2.4438103e-5,50.0
l-50.0,1.6292068e-5
l-50.0,1.6292068e-5
l-1.4106498e-5,-50.0
l50.0,-1.1920929e-5
l-1.4106498e-5,-50.0
l-50.0,1.6292068e-5
l-1.4106498e-5,-50.0
l50.0,-1.1920929e-5
l50.0,-1.1920929e-5
l9.7353595e-6,50.0
l50.0,-1.1920929e-5
l-1.4106498e-5,-50.0
l50.0,-1.1920929e-5
l50.0,-1.1920929e-5
l9.7353595e-6,50.0
l-50.0,7.54979e-6
l9.7353595e-6,50.0
l9.7353595e-6,50.0
l50.0,-1.1920929e-5
l-1.4106498e-5,-50.0
l50.0,-1.1920929e-5
l9.7353595e-6,50.0
l50.0,-1.1920929e-5
l-1.4106498e-5,-50.0
l-1.4106498e-5,-50.0
l-50.0,1.6292068e-5
l-1.4106498e-5,-50.0
l50.0,-1.1920929e-5
l-1.4106498e-5,-50.0
l-50.0,1.6292068e-5
l-1.4106498e-5,-50.0
l50.0,-1.1920929e-5
l-1.4106498e-5,-50.0
l-1.4106498e-5,-50.0
l-50.0,1.6292068e-5
l2.4438103e-5,50.0
l-50.0,1.6292068e-5
l-1.4106498e-5,-50.0
l-50.0,1.6292068e-5
l2.4438103e-5,50.0
l2.4438103e-5,50.0
l50.0,-3.2584136e-5
l2.4438103e-5,50.0
l-50.0,1.6292068e-5
l-50.0,1.6292068e-5
l-1.4106498e-5,-50.0
l-50.0,1.6292068e-5
l2.4438103e-5,50.0
l-50.0,1.6292068e-5
l-50.0,1.6292068e-5
l-1.4106498e-5,-50.0
l50.0,-1.1920929e-5
l-1.4106498e-5,-50.0
l-50.0,1.6292068e-5
l-1.4106498e-5,-50.0
l50.0,-1.1920929e-5
l50.0,-1.1920929e-5
l9.7353595e-6,50.0
l50.0,-1.1920929e-5
l-1.4106498e-5,-50.0
l-1.4106498e-5,-50.0
l-1.4106498e-5,-50.0
l-50.0,1.6292068e-5
l2.4438103e-5,50.0
l-50.0,1.6292068e-5
l-50.0,1.6292068e-5
l-1.4106498e-5,-50.0
l50.0,-1.1920929e-5
l-1.4106498e-5,-50.0
l-50.0,1.6292068e-5
l-1.4106498e-5,-50.0
l50.0,-1.1920929e-5
l50.0,-1.1920929e-5
l9.7353595e-6,50.0
l50.0,-1.1920929e-5
l-1.4106498e-5,-50.0
l50.0,-1.1920929e-5
l50.0,-1.1920929e-5
l9.7353595e-6,50.0
l-50.0,7.54979e-6
l9.7353595e-6,50.0
l9.7353595e-6,50.0
l50.0,-1.1920929e-5
l-1.4106498e-5,-50.0
l50.0,-1.1920929e-5
l9.7353595e-6,50.0
l50.0,-1.1920929e-5
l-1.4106498e-5,-50.0
l-1.4106498e-5,-50.0
l-50.0,1.6292068e-5
l-1.4106498e-5,-50.0
l50.0,-1.1920929e-5
l50.0,-1.1920929e-5
l9.7353595e-6,50.0
l50.0,-1.1920929e-5
l-1.4106498e-5,-50.0
l50.0,-1.1920929e-5
l50.0,-1.1920929e-5
l9.7353595e-6,50.0
l-50.0,7.54979e-6
l9.7353595e-6,50.0
l50.0,-1.1920929e-5
l9.7353595e-6,50.0
l-50.0,7.54979e-6
l-50.0,7.54979e-6
l5.9624404e-7,-50.0
l-50.0,7.54979e-6
l9.7353595e-6,50.0
l9.7353595e-6,50.0
l50.0,-1.1920929e-5
l9.7353595e-6,50.0
l-50.0,7.54979e-6
l9.7353595e-6,50.0
l9.7353595e-6,50.0
l50.0,-1.1920929e-5
l-1.4106498e-5,-50.0
l50.0,-1.1920929e-5
l9.7353595e-6,50.0
l50.0,-1.1920929e-5
l-1.4106498e-5,-50.0
l-1.4106498e-5,-50.0
l-50.0,1.6292068e-5
l-1.4106498e-5,-50.0
l50.0,-1.1920929e-5
l50.0,-1.1920929e-5
l50.0,-1.1920929e-5
l9.7353595e-6,50.0
l-50.0,7.54979e-6
l9.7353595e-6,50.0
l9.7353595e-6,50.0
l50.0,-1.1920929e-5
l-1.4106498e-5,-50.0
l50.0,-1.1920929e-5
l9.7353595e-6,50.0
l50.0,-1.1920929e-5
l-1.4106498e-5,-50.0
l-1.4106498e-5,-50.0
l-50.0,1.6292068e-5
l-1.4106498e-5,-50.0
l50.0,-1.1920929e-5
l-1.4106498e-5,-50.0
l-1.4106498e-5,-50.0
l-50.0,1.6292068e-5
l2.4438103e-5,50.0
l-50.0,1.6292068e-5
l-50.0,1.6292068e-5
l-1.4106498e-5,-50.0
l50.0,-1.1920929e-5
l-1.4106498e-5,-50.0
l-50.0,1.6292068e-5
l-1.4106498e-5,-50.0
l50.0,-1.1920929e-5
l50.0,-1.1920929e-5
l9.7353595e-6,50.0
l50.0,-1.1920929e-5
l-1.4106498e-5,-50.0
l-1.4106498e-5,-50.0
l-1.4106498e-5,-50.0
l-50.0,1.6292068e-5
l2.4438103e-5,50.0
l-50.0,1.6292068e-5
l-50.0,1.6292068e-5
l-1.4106498e-5,-50.0
l50.0,-1.1920929e-5
l-1.4106498e-5,-50.0
l-50.0,1.6292068e-5
l-1.4106498e-5,-50.0
l50.0,-1.1920929e-5
l50.0,-1.1920929e-5
l9.7353595e-6,50.0
l50.0,-1.1920929e-5
l-1.4106498e-5,-50.0
l-1.4106498e-5,-50.0
l-50.0,1.6292068e-5
l-1.4106498e-5,-50.0
l50.0,-1.1920929e-5
l-1.4106498e-5,-50.0
l-1.4106498e-5,-50.0
l-50.0,1.6292068e-5
l2.4438103e-5,50.0
l-50.0,1.6292068e-5
l-1.4106498e-5,-50.0
l-50.0,1.6292068e-5
l2.4438103e-5,50.0
l2.4438103e-5,50.0
l50.0,-3.2584136e-5
l2.4438103e-5,50.0
l-50.0,1.6292068e-5
l-50.0,1.6292068e-5
l-50.0,1.6292068e-5
l-1.4106498e-5,-50.0
l50.0,-1.1920929e-5
l-1.4106498e-5,-50.0
l-1.4106498e-5,-50.0
l-50.0,1.6292068e-5
l2.4438103e-5,50.0
l-50.0,1.6292068e-5
l-1.4106498e-5,-50.0
l-50.0,1.6292068e-5
l2.4438103e-5,50.0
l2.4438103e-5,50.0
l50.0,-3.2584136e-5
l2.4438103e-5,50.0
l-50.0,1.6292068e-5
l2.4438103e-5,50.0
l2.4438103e-5,50.0
l50.0,-3.2584136e-5
l-4.073017e-5,-50.0
l50.0,-3.2584136e-5
l50.0,-3.2584136e-5
l2.4438103e-5,50.0
l-50.0,1.6292068e-5
l2.4438103e-5,50.0
l50.0,-3.2584136e-5
l2.4438103e-5,50.0
l-50.0,1.6292068e-5
l-50.0,1.6292068e-5
l-1.4106498e-5,-50.0
l-50.0,1.6292068e-5
l2.4438103e-5,50.0
l-50.0,1.6292068e-5
l-50.0,1.6292068e-5
l-1.4106498e-5,-50.0
l50.0,-1.1920929e-5
l-1.4106498e-5,-50.0
l-1.4106498e-5,-50.0
l-50.0,1.6292068e-5
l2.4438103e-5,50.0
l-50.0,1.6292068e-5
l-1.4106498e-5,-50.0
l-50.0,1.6292068e-5
l2.4438103e-5,50.0
l2.4438103e-5,50.0
l50.0,-3.2584136e-5
l2.4438103e-5,50.0
l-50.0,1.6292068e-5
l-50.0,1.6292068e-5
l-1.4106498e-5,-50.0
l-50.0,1.6292068e-5
l2.4438103e-5,50.0
l-50.0,1.6292068e-5
l-50.0,1.6292068e-5
l-1.4106498e-5,-50.0
l50.0,-1.1920929e-5
l-1.4106498e-5,-50.0
l-50.0,1.6292068e-5
l-1.4106498e-5,-50.0
l50.0,-1.1920929e-5
l50.0,-1.1920929e-5
l9.7353595e-6,50.0
l50.0,-1.1920929e-5
l-1.4106498e-5,-50.0
l-1.4106498e-5,-50.0
l-1.4106498e-5,-50.0
l-50.0,1.6292068e-5
l2.4438103e-5,50.0
l-50.0,1.6292068e-5
l-50.0,1.6292068e-5
l-1.4106498e-5,-50.0
l50.0,-1.1920929e-5
l-1.4106498e-5,-50.0
l-50.0,1.6292068e-5
l-1.4106498e-5,-50.0
l50.0,-1.1920929e-5
l50.0,-1.1920929e-5
l9.7353595e-6,50.0
l50.0,-1.1920929e-5
l-1.4106498e-5,-50.0
l50.0,-1.1920929e-5
l50.0,-1.1920929e-5
l9.7353595e-6,50.0
l-50.0,7.54979e-6
l9.7353595e-6,50.0
l9.7353595e-6,50.0
l50.0,-1.1920929e-5
l-1.4106498e-5,-50.0
l50.0,-1.1920929e-5
l9.7353595e-6,50.0
l50.0,-1.1920929e-5
l-1.4106498e-5,-50.0
l-1.4106498e-5,-50.0
l-50.0,1.6292068e-5
l-1.4106498e-5,-50.0
l50.0,-1.1920929e-5
l-1.4106498e-5,-50.0
l-50.0,1.6292068e-5
l-1.4106498e-5,-50.0
l50.0,-1.1920929e-5
l-1.4106498e-5,-50.0
l-1.4106498e-5,-50.0
l-50.0,1.6292068e-5
l2.4438103e-5,50.0
l-50.0,1.6292068e-5
l-1.4106498e-5,-50.0
l-50.0,1.6292068e-5
l2.4438103e-5,50.0
l2.4438103e-5,50.0
l50.0,-3.2584136e-5
l2.4438103e-5,50.0
l-50.0,1.6292068e-5
l-50.0,1.6292068e-5
l-1.4106498e-5,-50.0
l-50.0,1.6292068e-5
l2.4438103e-5,50.0
l-50.0,1.6292068e-5
l-50.0,1.6292068e-5
l-1.4106498e-5,-50.0
l50.0,-1.1920929e-5
l-1.4106498e-5,-50.0
l-50.0,1.6292068e-5
l-1.4106498e-5,-50.0
l50.0,-1.1920929e-5
l50.0,-1.1920929e-5
l9.7353595e-6,50.0
l50.0,-1.1920929e-5
l-1.4106498e-5,-50.0
l-1.4106498e-5,-50.0
l-1.4106498e-5,-50.0
l-50.0,1.6292068e-5
l2.4438103e-5,50.0
l-50.0,1.6292068e-5
l-50.0,1.6292068e-5
l-1.4106498e-5,-50.0
l50.0,-1.1920929e-5
l-1.4106498e-5,-50.0
l-50.0,1.6292068e-5
l-1.4106498e-5,-50.0
l50.0,-1.1920929e-5
l50.0,-1.1920929e-5
l9.7353595e-6,50.0
l50.0,-1.1920929e-5
l-1.4106498e-5,-50.0
l50.0,-1.1920929e-5
l50.0,-1.1920929e-5
l9.7353595e-6,50.0
l-50.0,7.54979e-6
l9.7353595e-6,50.0
l9.7353595e-6,50.0
l50.0,-1.1920929e-5
l-1.4106498e-5,-50.0
l50.0,-1.1920929e-5
l9.7353595e-6,50.0
l50.0,-1.1920929e-5
l-1.4106498e-5,-50.0
l-1.4106498e-5,-50.0
l-50.0,1.6292068e-5
l-1.4106498e-5,-50.0
l50.0,-1.1920929e-5
l50.0,-1.1920929e-5
l9.7353595e-6,50.0
l50.0,-1.1920929e-5
l-1.4106498e-5,-50.0
l50.0,-1.1920929e-5
l50.0,-1.1920929e-5
l9.7353595e-6,50.0
l-50.0,7.54979e-6
l9.7353595e-6,50.0
l50.0,-1.1920929e-5
l9.7353595e-6,50.0
l-50.0,7.54979e-6
l-50.0,7.54979e-6
l5.9624404e-7,-50.0
l-50.0,7.54979e-6
l9.7353595e-6,50.0
l9.7353595e-6,50.0
l50.0,-1.1920929e-5
l9.7353595e-6,50.0
l-50.0,7.54979e-6
l9.7353595e-6,50.0
l9.7353595e-6,50.0
l50.0,-1.1920929e-5
l-1.4106498e-5,-50.0
l50.0,-1.1920929e-5
l9.7353595e-6,50.0
l50.0,-1.1920929e-5
l-1.4106498e-5,-50.0
l-1.4106498e-5,-50.0
l-50.0,1.6292068e-5
l-1.4106498e-5,-50.0
l50.0,-1.1920929e-5
l50.0,-1.1920929e-5
l50.0,-1.1920929e-5
l9.7353595e-6,50.0
l-50.0,7.54979e-6
l9.7353595e-6,50.0
l9.7353595e-6,50.0
l50.0,-1.1920929e-5
l-1.4106498e-5,-50.0
l50.0,-1.1920929e-5
l9.7353595e-6,50.0
l50.0,-1.1920929e-5
l-1.4106498e-5,-50.0
l-1.4106498e-5,-50.0
l-50.0,1.6292068e-5
l-1.4106498e-5,-50.0
l50.0,-1.1920929e-5
l-1.4106498e-5,-50.0
l-1.4106498e-5,-50.0
l-50.0,1.6292068e-5
l2.4438103e-5,50.0
l-50.0,1.6292068e-5
l-50.0,1.6292068e-5
l-1.4106498e-5,-50.0
l50.0,-1.1920929e-5
l-1.4106498e-5,-50.0
l-50.0,1.6292068e-5
l-1.4106498e-5,-50.0
l50.0,-1.1920929e-5
l50.0,-1.1920929e-5
l9.7353595e-6,50.0
l50.0,-1.1920929e-5
l-1.4106498e-5,-50.0
l50.0,-1.1920929e-5
l50.0,-1.1920929e-5
l9.7353595e-6,50.0
l-50.0,7.54979e-6
l9.7353595e-6,50.0
l9.7353595e-6,50.0
l50.0,-1.1920929e-5
l-1.4106498e-5,-50.0
l50.0,-1.1920929e-5
l9.7353595e-6,50.0
l50.0,-1.1920929e-5
l-1.4106498e-5,-50.0
l-1.4106498e-5,-50.0
l-50.0,1.6292068e-5
l-1.4106498e-5,-50.0
l50.0,-1.1920929e-5
l50.0,-1.1920929e-5
l9.7353595e-6,50.0
l50.0,-1.1920929e-5
l-1.4106498e-5,-50.0
l50.0,-1.1920929e-5
l50.0,-1.1920929e-5
l9.7353595e-6,50.0
l-50.0,7.54979e-6
l9.7353595e-6,50.0
l50.0,-1.1920929e-5
l9.7353595e-6,50.0
l-50.0,7.54979e-6
l-50.0,7.54979e-6
l5.9624404e-7,-50.0
l-50.0,7.54979e-6
l9.7353595e-6,50.0
l9.7353595e-6,50.0
l9.7353595e-6,50.0
l50.0,-1.1920929e-5
l-1.4106498e-5,-50.0
l50.0,-1.1920929e-5
l50.0,-1.1920929e-5
l9.7353595e-6,50.0
l-50.0,7.54979e-6
l9.7353595e-6,50.0
l50.0,-1.1920929e-5
l9.7353595e-6,50.0
l-50.0,7.54979e-6
l-50.0,7.54979e-6
l5.9624404e-7,-50.0
l-50.0,7.54979e-6
l9.7353595e-6,50.0
l-50.0,7.54979e-6
l-50.0,7.54979e-6
l5.9624404e-7,-50.0
l50.0,8.742278e-6
l5.9624404e-7,-50.0
l5.9624404e-7,-50.0
l-50.0,7.54979e-6
l9.7353595e-6,50.0
l-50.0,7.54979e-6
l5.9624404e-7,-50.0
l-50.0,7.54979e-6
l9.7353595e-6,50.0
l9.7353595e-6,50.0
l50.0,-1.1920929e-5
l9.7353595e-6,50.0
l-50.0,7.54979e-6
l9.7353595e-6,50.0
l9.7353595e-6,50.0
l50.0,-1.1920929e-5
l-1.4106498e-5,-50.0
l50.0,-1.1920929e-5
l50.0,-1.1920929e-5
l9.7353595e-6,50.0
l-50.0,7.54979e-6
l9.7353595e-6,50.0
l50.0,-1.1920929e-5
l9.7353595e-6,50.0
l-50.0,7.54979e-6
l-50.0,7.54979e-6
l5.9624404e-7,-50.0
l-50.0,7.54979e-6
l9.7353595e-6,50.0
l9.7353595e-6,50.0
l50.0,-1.1920929e-5
l9.7353595e-6,50.0
l-50.0,7.54979e-6
l9.7353595e-6,50.0
l9.7353595e-6,50.0
l50.0,-1.1920929e-5
l-1.4106498e-5,-50.0
l50.0,-1.1920929e-5
l9.7353595e-6,50.0
l50.0,-1.1920929e-5
l-1.4106498e-5,-50.0
l-1.4106498e-5,-50.0
l-50.0,1.6292068e-5
l-1.4106498e-5,-50.0
l50.0,-1.1920929e-5
l50.0,-1.1920929e-5
l50.0,-1.1920929e-5
l9.7353595e-6,50.0
l-50.0,7.54979e-6
l9.7353595e-6,50.0
l9.7353595e-6,50.0
l50.0,-1.1920929e-5
l-1.4106498e-5,-50.0
l50.0,-1.1920929e-5
l9.7353595e-6,50.0
l50.0,-1.1920929e-5
l-1.4106498e-5,-50.0
l-1.4106498e-5,-50.0
l-50.0,1.6292068e-5
l-1.4106498e-5,-50.0
l50.0,-1.1920929e-5
l-1.4106498e-5,-50.0
l-1.4106498e-5,-50.0
l-50.0,1.6292068e-5
l2.4438103e-5,50.0
l-50.0,1.6292068e-5
l-50.0,1.6292068e-5
l-1.4106498e-5,-50.0
l50.0,-1.1920929e-5
l-1.4106498e-5,-50.0
l-50.0,1.6292068e-5
l-1.4106498e-5,-50.0
l50.0,-1.1920929e-5
l50.0,-1.1920929e-5
l9.7353595e-6,50.0
l50.0,-1.1920929e-5
l-1.4106498e-5,-50.0
l50.0,-1.1920929e-5
l9.7353595e-6,50.0
l50.0,-1.1920929e-5
l-1.4106498e-5,-50.0
l50.0,-1.1920929e-5
l50.0,-1.1920929e-5
l9.7353595e-6,50.0
l-50.0,7.54979e-6
l9.7353595e-6,50.0
l50.0,-1.1920929e-5
l9.7353595e-6,50.0
l-50.0,7.54979e-6
l-50.0,7.54979e-6
l5.9624404e-7,-50.0
l-50.0,7.54979e-6
l9.7353595e-6,50.0
l9.7353595e-6,50.0
l50.0,-1.1920929e-5
l9.7353595e-6,50.0
l-50.0,7.54979e-6
l9.7353595e-6,50.0
l9.7353595e-6,50.0
l50.0,-1.1920929e-5
l-1.4106498e-5,-50.0
l50.0,-1.1920929e-5
l9.7353595e-6,50.0
l50.0,-1.1920929e-5
l-1.4106498e-5,-50.0
l-1.4106498e-5,-50.0
l-50.0,1.6292068e-5
l-1.4106498e-5,-50.0
l50.0,-1.1920929e-5
l50.0,-1.1920929e-5
l50.0,-1.1920929e-5
l9.7353595e-6,50.0
l-50.0,7.54979e-6
l9.7353595e-6,50.0
l9.7353595e-6,50.0
l50.0,-1.1920929e-5
l-1.4106498e-5,-50.0
l50.0,-1.1920929e-5
l9.7353595e-6,50.0
l50.0,-1.1920929e-5
l-1.4106498e-5,-50.0
l-1.4106498e-5,-50.0
l-50.0,1.6292068e-5
l-1.4106498e-5,-50.0
l50.0,-1.1920929e-5
l-1.4106498e-5,-50.0
l-1.4106498e-5,-50.0
l-50.0,1.6292068e-5
l2.4438103e-5,50.0
l-50.0,1.6292068e-5
l-50.0,1.6292068e-5
l-1.4106498e-5,-50.0
l50.0,-1.1920929e-5
l-1.4106498e-5,-50.0
l-50.0,1.6292068e-5
l-1.4106498e-5,-50.0
l50.0,-1.1920929e-5
l50.0,-1.1920929e-5
l9.7353595e-6,50.0
l50.0,-1.1920929e-5
l-1.4106498e-5,-50.0
l-1.4106498e-5,-50.0
l-50.0,1.6292068e-5
l-1.4106498e-5,-50.0
l50.0,-1.1920929e-5
l-1.4106498e-5,-50.0
l-1.4106498e-5,-50.0
l-50.0,1.6292068e-5
l2.4438103e-5,50.0
l-50.0,1.6292068e-5
l-1.4106498e-5,-50.0
l-50.0,1.6292068e-5
l2.4438103e-5,50.0
l2.4438103e-5,50.0
l50.0,-3.2584136e-5
l2.4438103e-5,50.0
l-50.0,1.6292068e-5
l-50.0,1.6292068e-5
l-1.4106498e-5,-50.0
l-50.0,1.6292068e-5
l2.4438103e-5,50.0
l-50.0,1.6292068e-5
l-50.0,1.6292068e-5
l-1.4106498e-5,-50.0
l50.0,-1.1920929e-5
l-1.4106498e-5,-50.0
l-50.0,1.6292068e-5
l-1.4106498e-5,-50.0
l50.0,-1.1920929e-5
l50.0,-1.1920929e-5
l9.7353595e-6,50.0
l50.0,-1.1920929e-5
l-1.4106498e-5,-50.0
l-1.4106498e-5,-50.0
l-1.4106498e-5,-50.0
l-50.0,1.6292068e-5
l2.4438103e-5,50.0
l-50.0,1.6292068e-5
l-50.0,1.6292068e-5
l-1.4106498e-5,-50.0
l50.0,-1.1920929e-5
l-1.4106498e-5,-50.0
l-50.0,1.6292068e-5
l-1.4106498e-5,-50.0
l50.0,-1.1920929e-5
l50.0,-1.1920929e-5
l9.7353595e-6,50.0
l50.0,-1.1920929e-5
l-1.4106498e-5,-50.0
l50.0,-1.1920929e-5
l50.0,-1.1920929e-5
l9.7353595e-6,50.0
l-50.0,7.54979e-6
l9.7353595e-6,50.0
l9.7353595e-6,50.0
l50.0,-1.1920929e-5
l-1.4106498e-5,-50.0
l50.0,-1.1920929e-5
l9.7353595e-6,50.0
l50.0,-1.1920929e-5
l-1.4106498e-5,-50.0
l-1.4106498e-5,-50.0
l-50.0,1.6292068e-5
l-1.4106498e-5,-50.0
l50.0,-1.1920929e-5
" />
</svg>
