<svg
xmlns="http://www.w3.org/2000/svg" xmlns:xlink="http://www.w3.org/1999/xlink"
viewBox="-10.0 -1352.3394 1620.0 1362.3394"
width="700" height="700" >
<path fill="none" stroke="black" d="
M0,0
l24.999998,-43.301273
l50.0,0.0
l24.999998,43.301273
l50.0,0.0
l24.999998,-43.301273
l-25.000004,-43.30127
l-50.0,4.371139e-6
l-25.000004,-43.30127
l24.999998,-43.301273
l50.0,0.0
l24.999998,-43.301273
l-25.000004,-43.30127
l24.999998,-43.301273
l50.0,0.0
l24.999998,43.301273
l-25.000004,43.30127
l24.999998,43.301273
l50.0,0.0
l24.999998,43.301273
l-25.000004,43.30127
l-50.0,-4.371139e-6
l-25.000004,43.30127
l24.999998,43.301273
l50.0,0.0
l24.999998,-43.301273
l50.0,0.0
l24.999998,43.301273
l50.0,0.0
l24.999998,-43.301273
l-25.000004,-43.30127
l24.999998,-43.301273
l50.0,0.0
l24.999998,43.301273
l-25.000004,43.30127
l24.999998,43.301273
l50.0,0.0
l24.999998,-43.301273
l50.0,0.0
l24.999998,43.301273
l50.0,0.0
l24.999998,-43.301273
l-25.000004,-43.30127
l-50.0,4.371139e-6
l-25.000004,-43.30127
l24.999998,-43.301273
l-25.000004,-43.30127
l-50.0,4.371139e-6
l-24.999996,43.301273
l-50.0,4.371139e-6
l-25.000004,-43.30127
l24.999998,-43.301273
l50.0,0.0
l24.999998,-43.301273
l-25.000004,-43.30127
l-50.0,4.371139e-6
l-25.000004,-43.30127
l24.999998,-43.301273
l-25.000004,-43.30127
l-50.0,4.371139e-6
l-24.999996,43.301273
l24.999996,43.301273
l-24.999996,43.301273
l-50.0,4.371139e-6
l-25.000004,-43.30127
l-50.0,4.371139e-6
l-24.999996,43.301273
l-50.0,4.371139e-6
l-25.000004,-43.30127
l24.999998,-43.301273
l50.0,0.0
l24.999998,-43.301273
l-25.000004,-43.30127
l24.999998,-43.301273
l50.0,0.0
l24.999998,43.301273
l50.0,0.0
l24.999998,-43.301273
l-25.000004,-43.30127
l-50.0,4.371139e-6
l-25.000004,-43.30127
l24.999998,-43.301273
l50.0,0.0
l24.999998,-43.301273
l-25.000004,-43.30127
l24.999998,-43.301273
l50.0,0.0
l24.999998,43.301273
l-25.000004,43.30127
l24.999998,43.301273
l50.0,0.0
l24.999998,-43.301273
l50.0,0.0
l24.999998,43.301273
l50.0,0.0
l24.999998,-43.301273
l-25.000004,-43.30127
l-50.0,4.371139e-6
l-25.000004,-43.30127
l24.999998,-43.301273
l-25.000004,-43.30127
l-50.0,4.371139e-6
l-24.999996,43.301273
l-50.0,4.371139e-6
l-25.000004,-43.30127
l24.999998,-43.301273
l50.0,0.0
l24.999998,-43.301273
l-25.000004,-43.30127
l24.999998,-43.301273
l50.0,0.0
l24.999998,43.301273
l50.0,0.0
l24.999998,-43.301273
l-25.000004,-43.30127
l-50.0,4.371139e-6
l-25.000004,-43.30127
l24.999998,-43.301273
l50.0,0.0
l24.999998,-43.301273
l-25.000004,-43.30127
l24.999998,-43.301273
l50.0,0.0
l24.999998,43.301273
l-25.000004,43.30127
l24.999998,43.301273
l50.0,0.0
l24.999998,43.301273
l-25.000004,43.30127
l-50.0,-4.371139e-6
l-25.000004,43.30127
l24.999998,43.301273
l50.0,0.0
l24.999998,-43.301273
l50.0,0.0
l24.999998,43.301273
l-25.000004,43.30127
l24.999998,43.301273
l50.0,0.0
l24.999998,43.301273
l-25.000004,43.30127
l-50.0,-4.371139e-6
l-24.999996,-43.301273
l-50.0,-4.371139e-6
l-25.000004,43.30127
l24.999998,43.301273
l-25.000004,43.30127
l-50.0,-4.371139e-6
l-25.000004,43.30127
l24.999998,43.301273
l50.0,0.0
l24.999998,-43.301273
l50.0,0.0
l24.999998,43.301273
l50.0,0.0
l24.999998,-43.301273
l-25.000004,-43.30127
l24.999998,-43.301273
l50.0,0.0
l24.999998,43.301273
l-25.000004,43.30127
l24.999998,43.301273
l50.0,0.0
l24.999998,43.301273
l-25.000004,43.30127
l-50.0,-4.371139e-6
l-25.000004,43.30127
l24.999998,43.301273
l50.0,0.0
l24.999998,-43.301273
l50.0,0.0
l24.999998,43.301273
l-25.000004,43.30127
l24.999998,43.301273
l50.0,0.0
l24.999998,43.301273
l-25.000004,43.30127
l-50.0,-4.371139e-6
l-24.999996,-43.301273
l-50.0,-4.371139e-6
l-25.000004,43.30127
l-50.0,-4.371139e-6
l-24.999996,-43.301273
l24.999996,-43.301273
l-24.999996,-43.301273
l-50.0,-4.371139e-6
l-25.000004,43.30127
l24.999998,43.301273
l-25.000004,43.30127
l-50.0,-4.371139e-6
l-25.000004,43.30127
l24.999998,43.301273
l50.0,0.0
l24.999998,43.301273
l-25.000004,43.30127
l-50.0,-4.371139e-6
l-24.999996,-43.301273
l-50.0,-4.371139e-6
l-25.000004,43.30127
l24.999998,43.301273
l-25.000004,43.30127
l-50.0,-4.371139e-6
l-25.000004,43.30127
l24.999998,43.301273
l50.0,0.0
l24.999998,-43.301273
l50.0,0.0
l24.999998,43.301273
l50.0,0.0
l24.999998,-43.301273
l-25.000004,-43.30127
l24.999998,-43.301273
l50.0,0.0
l24.999998,43.301273
l-25.000004,43.30127
l24.999998,43.301273
l50.0,0.0
l24.999998,-43.301273
l50.0,0.0
l24.999998,43.301273
l50.0,0.0
l24.999998,-43.301273
l-25.000004,-43.30127
l-50.0,4.371139e-6
l-25.000004,-43.30127
l24.999998,-43.301273
l50.0,0.0
l24.999998,-43.301273
l-25.000004,-43.30127
l24.999998,-43.301273
l50.0,0.0
l24.999998,43.301273
l-25.000004,43.30127
l24.999998,43.301273
l50.0,0.0
l24.999998,43.301273
l-25.000004,43.30127
l-50.0,-4.371139e-6
l-25.000004,43.30127
l24.999998,43.301273
l50.0,0.0
l24.999998,-43.301273
l50.0,0.0
l24.999998,43.301273
" />
</svg>
