<svg
xmlns="http://www.w3.org/2000/svg" xmlns:xlink="http://www.w3.org/1999/xlink"
viewBox="-160.00006 -159.99977 320.00018 320.0"
width="320.00018" height="320.0" >
<path fill="none" stroke="black" d="
M0,0
l50.0,0.0
l-2.1855694e-6,50.0
l-50.0,-4.371139e-6
l-50.0,-4.371139e-6
l5.9624404e-7,-50.0
l5.9624404e-7,-50.0
l50.0,8.742278e-6
l50.0,8.742278e-6
l50.0,8.742278e-6
l-1.6888313e-5,50.0
l-1.6888313e-5,50.0
l-1.6888313e-5,50.0
l-50.0,-1.1924881e-6
l-50.0,-1.1924881e-6
l-50.0,-1.1924881e-6
l-50.0,-1.1924881e-6
l-1.45033355e-5,-50.0
l-1.45033355e-5,-50.0
l-1.45033355e-5,-50.0
l-1.45033355e-5,-50.0
l50.0,-3.019916e-5
l50.0,-3.019916e-5
l50.0,-3.019916e-5
l50.0,-3.019916e-5
l50.0,-3.019916e-5
l4.5894983e-5,50.0
l4.5894983e-5,50.0
l4.5894983e-5,50.0
l4.5894983e-5,50.0
l4.5894983e-5,50.0
l-50.0,6.159081e-5
l-50.0,6.159081e-5
l-50.0,6.159081e-5
l-50.0,6.159081e-5
l-50.0,6.159081e-5
l-50.0,6.159081e-5
l-2.9602916e-5,-50.0
l-2.9602916e-5,-50.0
l-2.9602916e-5,-50.0
l-2.9602916e-5,-50.0
l-2.9602916e-5,-50.0
l-2.9602916e-5,-50.0
" />
</svg>
