<svg
xmlns="http://www.w3.org/2000/svg" xmlns:xlink="http://www.w3.org/1999/xlink"
viewBox="-648.9088 -1448.9088 1297.8176 1458.9088"
width="1297.8176" height="1458.9088" >
<path fill="none" stroke="black" d="
M0,0
l-2.1855694e-6,-50.0
l-2.1855694e-6,-50.0
l-2.1855694e-6,-50.0
l-2.1855694e-6,-50.0
l-2.1855694e-6,-50.0
l-2.1855694e-6,-50.0
l-2.1855694e-6,-50.0
l-2.1855694e-6,-50.0
l-2.1855694e-6,-50.0
l-2.1855694e-6,-50.0
l-2.1855694e-6,-50.0
l-2.1855694e-6,-50.0
l-2.1855694e-6,-50.0
l-2.1855694e-6,-50.0
l-2.1855694e-6,-50.0
l-2.1855694e-6,-50.0
l35.35534,-35.35534
l35.35534,-35.35534
l35.35534,-35.35534
l35.35534,-35.35534
l35.35534,-35.35534
l35.35534,-35.35534
l35.35534,-35.35534
l35.35534,-35.35534
l50.0,0.0
l50.0,0.0
l50.0,0.0
l50.0,0.0
l35.35534,35.35534
l35.35534,35.35534
l-2.1855694e-6,50.0
l-35.35534,35.35534
M553.5534,-962.1321
l35.35534,35.35534
M553.5534,-1012.1321
l50.0,0.0
l35.35534,35.35534
M603.5534,-1012.1321
l35.35534,-35.35534
M482.8427,-1082.8428
l35.35534,-35.35534
l35.35534,-35.35534
l50.0,0.0
l35.35534,35.35534
M603.5534,-1153.5535
l35.35534,-35.35534
M553.5534,-1153.5535
l-2.1855694e-6,-50.0
l35.35534,-35.35534
M553.5534,-1203.5535
l-35.35534,-35.35534
M282.8427,-1082.8428
l-2.1855694e-6,-50.0
l-2.1855694e-6,-50.0
l-2.1855694e-6,-50.0
l-2.1855694e-6,-50.0
l35.35534,-35.35534
l35.35534,-35.35534
l50.0,0.0
l35.35534,35.35534
M403.5534,-1353.5535
l35.35534,-35.35534
M353.5534,-1353.5535
l-2.1855694e-6,-50.0
l35.35534,-35.35534
M353.5534,-1403.5535
l-35.35534,-35.35534
M282.8427,-1282.8428
l-35.35534,-35.35534
l-35.35534,-35.35534
l3.774895e-6,-50.0
l35.355343,-35.355335
M212.13202,-1403.5535
l-35.35534,-35.35534
M212.13202,-1353.5535
l-50.0,4.371139e-6
l-35.35534,-35.35534
M162.13202,-1353.5535
l-35.35533,35.355343
M-3.4969118e-5,-800.0
l-35.35534,-35.35534
l-35.35534,-35.35534
l-35.35534,-35.35534
l-35.35534,-35.35534
l-35.35534,-35.35534
l-35.35534,-35.35534
l-35.35534,-35.35534
l-35.35534,-35.35534
l3.774895e-6,-50.0
l3.774895e-6,-50.0
l3.774895e-6,-50.0
l3.774895e-6,-50.0
l35.355343,-35.355335
l35.355343,-35.355335
l50.0,5.9604645e-6
l35.355335,35.355343
M-162.13208,-1353.5535
l35.355343,-35.355335
M-212.13208,-1353.5535
l3.774895e-6,-50.0
l35.355343,-35.355335
M-212.13208,-1403.5535
l-35.35534,-35.35534
M-282.84277,-1282.8428
l-35.35534,-35.35534
l-35.35534,-35.35534
l3.774895e-6,-50.0
l35.355343,-35.355335
M-353.55347,-1403.5535
l-35.35534,-35.35534
M-353.55347,-1353.5535
l-50.0,4.371139e-6
l-35.35534,-35.35534
M-403.55347,-1353.5535
l-35.35533,35.355343
M-282.84277,-1082.8428
l-50.0,4.371139e-6
l-50.0,4.371139e-6
l-50.0,4.371139e-6
l-50.0,4.371139e-6
l-35.35534,-35.35534
l-35.35534,-35.35534
l3.774895e-6,-50.0
l35.355343,-35.355335
M-553.55347,-1203.5535
l-35.35534,-35.35534
M-553.55347,-1153.5535
l-50.0,4.371139e-6
l-35.35534,-35.35534
M-603.55347,-1153.5535
l-35.35533,35.355343
M-482.84277,-1082.8428
l-35.35533,35.355343
l-35.35533,35.355343
l-50.0,4.371139e-6
l-35.35534,-35.35534
M-603.55347,-1012.1321
l-35.35533,35.355343
M-553.55347,-1012.1321
l5.9624404e-7,50.0
l-35.355343,35.355335
M-553.55347,-962.1321
l35.35533,35.355343
" />
</svg>
